<?xml version="1.0" standalone="no"?>
<!DOCTYPE svg PUBLIC "-//W3C//DTD SVG 20010904//EN"
 "http://www.w3.org/TR/2001/REC-SVG-20010904/DTD/svg10.dtd">
<svg version="1.0" xmlns="http://www.w3.org/2000/svg"
 width="512.000000pt" height="512.000000pt" viewBox="0 0 512.000000 512.000000"
 preserveAspectRatio="xMidYMid meet">
<metadata>
Created by potrace 1.16, written by Peter Selinger 2001-2019
</metadata>
<g transform="translate(0.000000,512.000000) scale(0.100000,-0.100000)"
fill="#000000" stroke="none">
<path d="M1156 4699 c-36 -43 -35 -91 3 -130 48 -47 117 -34 146 28 31 65 -13
133 -86 133 -29 0 -43 -7 -63 -31z m74 -48 c0 -5 8 -11 18 -13 14 -3 14 -5 2
-9 -8 -3 -23 3 -32 13 -15 15 -15 18 -3 18 8 0 15 -4 15 -9z"/>
<path d="M2640 4705 c0 -43 32 -65 98 -65 95 0 353 -50 435 -85 10 -4 17 -3
17 4 0 10 -77 35 -183 60 -41 10 -235 40 -260 41 -4 0 -2 8 4 19 8 11 9 26 4
37 -8 17 -9 16 -13 -9 -7 -55 -82 -57 -82 -2 0 14 -4 25 -10 25 -5 0 -10 -11
-10 -25z"/>
<path d="M4476 4714 c-19 -18 -20 -28 -6 -55 13 -23 53 -25 74 -3 21 20 20 37
-2 57 -23 21 -46 22 -66 1z m57 -16 c7 -21 -4 -38 -23 -38 -23 0 -34 16 -26
35 7 18 43 20 49 3z"/>
<path d="M4907 4710 c-31 -24 -44 -78 -27 -110 10 -19 8 -26 -16 -51 -25 -26
-29 -27 -48 -14 -11 8 -43 15 -70 15 -44 0 -53 -4 -92 -44 -40 -39 -44 -48
-44 -91 0 -94 56 -155 141 -155 117 0 189 138 121 230 l-20 27 25 25 c23 24
27 24 53 11 25 -12 33 -12 64 1 64 26 77 97 27 147 -35 35 -77 38 -114 9z
m-157 -204 c0 -2 -7 -6 -15 -10 -8 -3 -15 -1 -15 4 0 6 7 10 15 10 8 0 15 -2
15 -4z m61 -14 c-5 -9 -18 -26 -29 -36 -14 -12 -23 -37 -28 -73 -6 -47 -9 -54
-27 -51 -11 2 -22 8 -24 15 -3 7 3 9 16 6 19 -5 21 -1 21 36 0 33 7 49 36 81
39 43 50 50 35 22z m23 -117 c-11 -43 -19 -36 -15 13 2 34 6 41 12 29 5 -9 7
-28 3 -42z"/>
<path d="M3800 4711 c0 -5 48 -43 108 -84 99 -69 302 -236 347 -286 16 -19 17
-24 5 -31 -8 -6 -25 -10 -37 -10 -47 0 -66 -50 -38 -100 13 -23 11 -27 -18
-59 -33 -35 -19 -34 21 2 17 16 25 18 34 9 7 -7 33 -12 59 -12 50 0 62 -10
157 -130 11 -14 23 -22 26 -19 3 3 -23 41 -59 84 -52 64 -62 82 -54 97 14 26
25 22 49 -18 15 -23 27 -33 38 -29 8 3 23 -2 34 -11 41 -38 24 -3 -43 87 -39
51 -75 99 -80 105 -7 8 46 63 171 175 99 90 185 165 190 167 5 2 15 -8 21 -22
13 -28 29 -35 29 -13 0 14 -41 57 -54 57 -5 0 -87 -73 -185 -162 -208 -191
-243 -221 -218 -192 17 21 16 22 -60 95 -165 157 -354 298 -408 305 -19 2 -35
0 -35 -5z m424 -446 c-15 -23 -15 -27 0 -50 20 -31 61 -33 76 -5 14 27 3 43
-25 36 -30 -8 -38 4 -18 26 25 28 60 23 78 -12 20 -39 19 -49 -7 -77 -14 -15
-33 -23 -54 -23 -59 0 -111 93 -66 119 28 17 33 12 16 -14z"/>
<path d="M4116 4712 c-11 -18 63 -60 124 -71 51 -10 48 -10 -34 -6 -104 5
-105 -10 -1 -18 82 -5 95 -2 95 24 0 16 -7 19 -53 19 -52 0 -88 16 -113 49 -8
10 -13 11 -18 3z"/>
<path d="M4170 4711 c0 -19 39 -31 99 -31 34 0 61 4 61 10 0 6 -27 10 -61 10
-33 0 -69 5 -80 10 -12 7 -19 7 -19 1z"/>
<path d="M3710 4700 c0 -5 7 -10 16 -10 8 0 12 5 9 10 -3 6 -10 10 -16 10 -5
0 -9 -4 -9 -10z"/>
<path d="M209 4671 c-39 -40 -39 -82 0 -122 36 -36 70 -37 110 -3 44 37 44 91
0 128 -40 34 -74 33 -110 -3z m99 -7 c31 -21 31 -87 0 -108 -48 -34 -108 -4
-108 54 0 58 60 88 108 54z"/>
<path d="M2348 4689 c-215 -15 -439 -73 -633 -162 -49 -23 -82 -43 -73 -45 9
-2 48 13 86 32 181 91 440 152 690 163 78 3 142 10 142 15 0 9 -57 9 -212 -3z"/>
<path d="M687 4684 c-14 -15 -6 -34 14 -34 14 0 19 5 17 17 -3 18 -20 27 -31
17z"/>
<path d="M1945 4660 c-227 -65 -503 -201 -700 -345 -151 -110 -278 -215 -270
-223 3 -3 22 9 43 26 82 69 271 212 347 262 88 58 297 162 420 210 44 17 129
44 189 60 60 16 111 32 114 35 13 13 -51 2 -143 -25z"/>
<path d="M3326 4682 c-3 -3 34 -24 82 -47 211 -100 430 -248 635 -429 52 -45
70 -57 79 -48 9 9 9 12 -1 12 -8 0 -46 28 -85 63 -152 134 -288 233 -451 327
-108 63 -251 130 -259 122z"/>
<path d="M3740 4676 c0 -2 35 -25 78 -52 110 -67 196 -129 274 -197 38 -32 73
-57 78 -55 12 4 -157 142 -250 204 -116 77 -180 113 -180 100z"/>
<path d="M1465 4660 c-8 -13 3 -30 20 -30 14 0 27 24 18 34 -10 9 -31 7 -38
-4z"/>
<path d="M1020 4650 c0 -5 4 -10 9 -10 6 0 13 5 16 10 3 6 -1 10 -9 10 -9 0
-16 -4 -16 -10z"/>
<path d="M3542 4643 c5 -25 28 -28 28 -4 0 12 -6 21 -16 21 -9 0 -14 -7 -12
-17z"/>
<path d="M816 4609 c-59 -51 -61 -120 -5 -184 76 -86 209 -30 209 88 0 110
-123 168 -204 96z m64 -94 c0 -8 -6 -15 -14 -15 -17 0 -28 14 -19 24 12 12 33
6 33 -9z m60 0 c0 -8 -7 -15 -15 -15 -8 0 -15 7 -15 15 0 8 7 15 15 15 8 0 15
-7 15 -15z"/>
<path d="M2320 4618 c-291 -20 -611 -129 -866 -293 -301 -195 -572 -452 -717
-683 -104 -165 -196 -385 -247 -589 -12 -49 -17 -50 -100 -28 -84 22 -93 21
-85 -15 5 -21 2 -39 -9 -54 -8 -13 -12 -26 -9 -30 11 -10 30 -7 31 7 12 88 19
98 51 78 12 -7 12 -22 1 -87 -22 -141 -25 -395 -6 -524 48 -323 182 -674 365
-954 45 -67 81 -128 81 -134 0 -13 13 -16 23 -6 3 3 -30 59 -74 124 -81 120
-198 351 -263 516 -82 211 -129 456 -129 674 0 152 19 367 35 376 4 3 22 2 39
-1 21 -5 29 -11 25 -22 -10 -25 -19 -98 -12 -92 4 4 25 74 47 155 49 185 87
288 157 429 104 209 186 318 388 515 264 258 541 432 847 535 169 56 328 85
515 92 78 3 142 10 142 15 0 9 -44 9 -230 -4z"/>
<path d="M2668 4607 c-10 -24 -10 -59 1 -75 5 -8 46 -17 107 -23 108 -11 231
-36 337 -69 38 -12 74 -19 80 -17 15 5 -123 49 -223 71 -41 9 -122 22 -180 29
l-105 12 -5 45 c-4 33 -7 40 -12 27z"/>
<path d="M525 4601 c-7 -12 12 -24 25 -16 11 7 4 25 -10 25 -5 0 -11 -4 -15
-9z"/>
<path d="M1375 4580 c-11 -17 5 -32 21 -19 7 6 11 15 8 20 -7 12 -21 11 -29
-1z"/>
<path d="M3380 4580 c0 -5 41 -30 90 -55 50 -25 90 -41 90 -35 0 5 -40 30 -90
55 -49 25 -90 41 -90 35z"/>
<path d="M4135 4580 c3 -6 50 -10 106 -10 59 0 99 4 99 10 0 6 -42 10 -106 10
-67 0 -103 -4 -99 -10z"/>
<path d="M3804 4559 c-3 -6 -2 -15 4 -21 13 -13 32 -2 32 18 0 16 -26 19 -36
3z"/>
<path d="M3260 4546 c0 -9 10 -21 23 -26 271 -109 441 -213 635 -383 78 -69
91 -86 87 -106 -13 -53 34 -119 87 -122 7 0 45 -41 83 -90 222 -286 390 -696
435 -1059 21 -167 23 -170 134 -170 l59 0 -7 -202 c-3 -112 -9 -221 -12 -243
-4 -30 -2 -36 5 -24 15 23 32 311 24 408 l-6 81 -74 0 c-87 0 -86 -1 -103 130
-53 411 -236 851 -462 1112 l-50 58 31 26 c17 14 31 36 31 47 1 21 1 21 22 -3
11 -14 52 -69 90 -123 65 -92 89 -111 96 -76 1 8 -34 61 -77 119 -44 58 -81
113 -81 123 0 15 -4 16 -20 7 -17 -9 -27 -3 -67 38 -54 54 -260 225 -329 273
-25 17 -48 28 -52 24 -4 -4 4 -15 18 -24 49 -32 137 -101 218 -170 83 -70 84
-71 58 -82 -24 -11 -30 -7 -111 69 -140 133 -289 232 -499 333 -141 67 -186
81 -186 55z m837 -556 c-6 -16 -15 -26 -19 -23 -5 2 -4 11 2 18 6 7 8 20 4 29
-4 12 -2 15 9 10 12 -4 13 -11 4 -34z"/>
<path d="M3720 4535 c0 -8 6 -15 14 -15 8 0 16 -3 18 -8 2 -4 28 -25 58 -47
30 -21 95 -70 143 -108 48 -38 90 -67 93 -64 7 7 -117 108 -213 174 -45 31
-84 62 -87 69 -7 19 -26 18 -26 -1z"/>
<path d="M2380 4530 c-141 -13 -350 -54 -337 -66 2 -3 49 4 103 15 128 26 252
41 336 41 39 0 68 4 68 10 0 11 -43 11 -170 0z"/>
<path d="M92 4518 c6 -18 28 -21 28 -4 0 9 -7 16 -16 16 -9 0 -14 -5 -12 -12z"/>
<path d="M4410 4515 c0 -8 5 -15 10 -15 6 0 10 7 10 15 0 8 -4 15 -10 15 -5 0
-10 -7 -10 -15z"/>
<path d="M550 4476 c0 -9 7 -16 16 -16 17 0 14 22 -4 28 -7 2 -12 -3 -12 -12z"/>
<path d="M1220 4423 c-111 -68 -152 -99 -265 -198 -69 -61 -109 -82 -121 -64
-3 5 -10 9 -16 9 -7 0 -6 -6 2 -15 7 -8 23 -15 36 -15 17 0 28 -8 36 -27 7
-16 18 -36 26 -45 14 -16 7 -26 -74 -110 -148 -155 -246 -296 -340 -493 -50
-107 -105 -261 -119 -337 -8 -40 -15 -44 -74 -32 -17 4 -31 13 -31 21 0 8 -4
11 -10 8 -5 -3 -10 -12 -10 -20 0 -14 101 -41 123 -32 7 3 18 33 25 68 44 215
189 504 350 699 25 30 84 94 131 143 70 71 81 87 63 87 -15 0 -27 12 -42 39
l-20 40 98 83 c122 105 145 122 260 190 51 31 90 58 85 61 -4 2 -55 -25 -113
-60z"/>
<path d="M3610 4468 c0 -13 52 -48 71 -48 20 0 7 16 -31 38 -27 15 -40 19 -40
10z"/>
<path d="M310 4416 c0 -9 5 -16 10 -16 6 0 10 4 10 9 0 6 -4 13 -10 16 -5 3
-10 -1 -10 -9z"/>
<path d="M3235 4409 c-10 -15 -8 -16 97 -63 202 -91 392 -221 547 -373 52 -51
97 -91 99 -88 7 6 -110 128 -208 218 -100 91 -260 198 -395 263 -115 56 -130
61 -140 43z"/>
<path d="M4955 4411 c-3 -5 -1 -12 5 -16 12 -7 30 2 30 16 0 12 -27 12 -35 0z"/>
<path d="M2490 4365 l0 -35 60 0 c33 0 60 4 60 10 0 6 -22 10 -50 10 -38 0
-50 4 -50 15 0 11 12 15 50 15 28 0 50 5 50 10 0 6 -27 10 -60 10 l-60 0 0
-35z"/>
<path d="M385 4376 c-40 -19 -90 -73 -104 -115 -16 -48 -13 -90 8 -137 58
-127 240 -141 317 -24 80 121 4 277 -139 287 -31 2 -64 -2 -82 -11z m95 -51
c0 -8 -4 -15 -10 -15 -5 0 -10 7 -10 15 0 8 5 15 10 15 6 0 10 -7 10 -15z
m-10 -70 c0 -43 2 -45 61 -86 33 -22 58 -43 55 -46 -2 -3 -29 11 -59 31 -30
20 -59 36 -64 36 -6 0 -36 -11 -68 -25 -75 -34 -82 -25 -10 11 64 33 80 53 71
95 -3 16 -1 29 4 29 6 0 10 -20 10 -45z"/>
<path d="M3000 4376 c0 -2 43 -19 95 -36 52 -17 95 -33 95 -36 0 -9 -43 -84
-49 -84 -3 0 -28 9 -56 19 -113 43 -405 101 -405 80 0 -4 37 -12 83 -18 104
-15 233 -46 319 -78 l66 -25 -4 -36 c-3 -28 2 -21 19 29 12 36 30 78 40 93 18
26 17 26 -10 37 -107 42 -193 67 -193 55z"/>
<path d="M1723 4363 c-15 -6 -17 -49 -3 -58 33 -20 65 26 38 53 -13 13 -16 13
-35 5z"/>
<path d="M2285 4359 c-79 -14 -229 -51 -245 -60 -26 -14 6 -11 88 11 116 29
251 51 278 44 18 -5 24 -13 24 -35 0 -16 5 -29 10 -29 11 0 13 39 4 64 -7 18
-74 20 -159 5z"/>
<path d="M1874 4335 c-15 -23 -15 -27 0 -50 19 -29 56 -33 80 -9 21 21 20 47
-2 67 -27 24 -59 21 -78 -8z m66 -5 c0 -5 -6 -10 -14 -10 -8 0 -22 -3 -30 -6
-12 -5 -15 -2 -10 10 7 17 54 23 54 6z m4 -42 c-3 -4 -14 -8 -24 -8 -10 0 -21
4 -24 8 -3 5 8 9 24 9 16 0 27 -4 24 -9z"/>
<path d="M143 4335 c-17 -13 -17 -15 -1 -31 20 -20 48 -12 48 15 0 25 -23 33
-47 16z m37 -17 c0 -4 -7 -8 -15 -8 -8 0 -15 4 -15 8 0 5 7 9 15 9 8 0 15 -4
15 -9z"/>
<path d="M756 4299 c-14 -11 -26 -28 -26 -38 0 -19 18 -41 34 -41 6 0 5 5 -2
12 -21 21 -13 48 18 62 17 7 27 15 23 19 -10 11 -18 8 -47 -14z"/>
<path d="M910 4312 c0 -6 5 -14 10 -17 6 -3 10 -10 10 -16 0 -12 -67 -12 -75
1 -3 6 -12 10 -18 10 -7 0 -1 -9 13 -20 33 -27 84 -23 88 6 2 11 -4 27 -13 34
-9 8 -15 8 -15 2z"/>
<path d="M2495 4290 c3 -5 26 -10 51 -10 24 0 44 5 44 10 0 6 -23 10 -51 10
-31 0 -48 -4 -44 -10z"/>
<path d="M4870 4255 c0 -8 7 -15 15 -15 8 0 15 7 15 15 0 8 -7 15 -15 15 -8 0
-15 -7 -15 -15z"/>
<path d="M3214 4235 c-9 -14 -14 -31 -11 -40 7 -16 198 -115 224 -115 9 0 27
9 39 21 21 19 24 20 50 5 16 -9 48 -30 71 -48 24 -17 45 -29 48 -26 19 19
-333 228 -383 228 -12 0 -29 -11 -38 -25z m139 -36 c122 -62 119 -60 100 -81
-9 -10 -21 -18 -26 -18 -12 0 -187 88 -201 101 -12 11 11 39 32 39 8 0 51 -18
95 -41z"/>
<path d="M4560 4251 c0 -6 5 -13 10 -16 6 -3 10 1 10 9 0 9 -4 16 -10 16 -5 0
-10 -4 -10 -9z"/>
<path d="M1503 4220 c-87 -53 -95 -161 -16 -231 33 -28 41 -31 88 -27 84 7
135 60 135 138 0 108 -117 175 -207 120z m42 -128 c0 -35 2 -37 30 -35 29 1
29 1 7 -10 -18 -8 -26 -7 -36 4 -15 16 -28 73 -19 83 11 11 18 -5 18 -42z m83
14 c2 -10 -1 -23 -7 -29 -7 -7 -8 -3 -4 13 4 13 0 26 -8 32 -12 8 -11 9 1 5 8
-2 17 -12 18 -21z"/>
<path d="M4660 4206 c-7 -9 -10 -23 -6 -31 7 -19 36 -20 36 0 0 8 -5 15 -12
15 -6 0 -8 3 -5 6 4 4 14 1 23 -7 14 -12 16 -11 13 6 -5 25 -32 31 -49 11z"/>
<path d="M1770 4185 c0 -9 5 -15 11 -13 6 2 11 8 11 13 0 5 -5 11 -11 13 -6 2
-11 -4 -11 -13z"/>
<path d="M4695 4142 c-33 -31 -100 -92 -148 -136 -48 -43 -86 -81 -83 -84 6
-5 206 170 265 232 56 58 31 49 -34 -12z"/>
<path d="M2338 4183 c-58 -10 -25 -18 45 -12 175 18 335 7 515 -36 57 -14 109
-25 115 -25 30 1 -33 23 -131 47 -93 22 -133 26 -312 28 -113 2 -217 1 -232
-2z"/>
<path d="M2174 4118 c3 -24 8 -71 12 -105 5 -50 10 -63 23 -63 40 0 48 21 43
118 -2 50 -8 92 -13 92 -5 0 -9 -15 -10 -32 0 -31 -1 -32 -10 -9 -16 41 -18
19 -4 -64 7 -44 11 -82 9 -84 -12 -14 -23 22 -29 99 -4 49 -12 90 -17 90 -6 0
-8 -17 -4 -42z m63 -80 c-3 -7 -5 -2 -5 12 0 14 2 19 5 13 2 -7 2 -19 0 -25z"/>
<path d="M4690 4023 c-80 -74 -175 -162 -212 -196 -38 -33 -68 -64 -68 -70 0
-13 119 92 363 322 37 35 67 67 65 72 -2 4 -68 -53 -148 -128z"/>
<path d="M2264 4095 c4 -33 9 -81 12 -106 7 -52 4 -55 -66 -61 -38 -3 -35 -10
-60 140 -6 39 -15 72 -20 72 -4 0 -1 -37 6 -82 24 -154 30 -137 -56 -163 -41
-12 -79 -20 -83 -18 -5 3 -17 24 -26 46 -10 23 -20 37 -23 31 -3 -5 4 -29 14
-52 23 -51 20 -51 183 -7 77 20 126 27 212 28 89 2 109 5 101 15 -8 9 -30 11
-83 6 -84 -8 -80 -13 -90 106 -3 42 -11 83 -16 90 -8 11 -9 -3 -5 -45z"/>
<path d="M665 4120 c3 -5 1 -10 -4 -10 -16 0 -13 -26 4 -40 8 -6 23 -9 35 -5
23 7 27 35 5 35 -9 0 -18 7 -21 15 -4 8 -10 15 -16 15 -5 0 -6 -4 -3 -10z m25
-30 c13 -8 13 -10 -2 -10 -9 0 -20 5 -23 10 -8 13 5 13 25 0z"/>
<path d="M2662 4115 c70 -8 164 -23 210 -34 78 -18 100 -19 85 -5 -16 16 -193
44 -302 48 l-120 5 127 -14z"/>
<path d="M4300 4123 c1 -13 121 -163 131 -163 6 0 -17 36 -51 79 -59 78 -80
100 -80 84z"/>
<path d="M4895 4090 c-16 -16 -25 -30 -21 -30 13 0 66 41 66 51 0 17 -16 9
-45 -21z"/>
<path d="M4440 4089 c0 -8 11 -26 25 -39 32 -30 32 -14 0 25 -16 20 -24 25
-25 14z"/>
<path d="M830 4080 c-9 -5 -54 -52 -100 -105 l-85 -97 -22 26 c-41 48 -61 22
-22 -28 28 -35 41 -33 75 12 16 20 61 72 101 114 79 83 91 101 53 78z m-205
-200 c10 -11 16 -20 13 -20 -3 0 -13 9 -23 20 -10 11 -16 20 -13 20 3 0 13 -9
23 -20z"/>
<path d="M2010 4075 c0 -8 5 -15 10 -15 6 0 10 7 10 15 0 8 -4 15 -10 15 -5 0
-10 -7 -10 -15z"/>
<path d="M2515 4066 c-23 -35 -5 -76 33 -76 51 0 79 52 46 84 -23 24 -61 20
-79 -8z m73 -23 c4 -30 -31 -49 -52 -27 -18 18 -18 17 -10 39 10 25 58 16 62
-12z"/>
<path d="M3176 4081 c-7 -11 3 -18 133 -89 113 -62 277 -189 361 -279 99 -106
154 -179 220 -294 32 -54 60 -96 63 -93 7 7 -62 129 -127 224 -68 100 -221
257 -324 335 -46 34 -134 91 -195 126 -62 35 -115 67 -118 72 -4 5 -10 4 -13
-2z"/>
<path d="M4935 4049 c-16 -10 -34 -21 -40 -23 -5 -2 -7 -6 -4 -10 7 -7 89 35
89 47 0 11 -12 7 -45 -14z"/>
<path d="M3107 4053 c-9 -14 4 -24 95 -71 169 -87 333 -220 401 -324 17 -27
33 -45 35 -39 5 16 -55 98 -121 162 -73 72 -205 163 -314 218 -45 23 -83 46
-85 53 -3 8 -6 9 -11 1z"/>
<path d="M2830 4040 c0 -5 7 -10 15 -10 8 0 15 5 15 10 0 6 -7 10 -15 10 -8 0
-15 -4 -15 -10z"/>
<path d="M4944 4025 c-15 -11 -16 -14 -3 -15 8 0 24 7 35 15 15 11 16 14 3 15
-8 0 -24 -7 -35 -15z"/>
<path d="M1980 4006 c0 -8 4 -17 8 -20 13 -8 35 11 28 23 -10 16 -36 14 -36
-3z"/>
<path d="M3020 4006 c1 -14 140 -79 140 -66 0 5 -31 25 -70 43 -38 18 -70 29
-70 23z"/>
<path d="M3476 4003 c-11 -11 -6 -23 9 -23 8 0 15 4 15 9 0 13 -16 22 -24 14z"/>
<path d="M430 3838 c-3 -86 -9 -160 -13 -165 -5 -4 -17 3 -28 16 -14 17 -16
27 -9 37 15 17 16 65 1 92 -27 51 -131 71 -180 34 -36 -27 -60 -71 -67 -123
-6 -42 -3 -48 29 -82 19 -20 40 -37 46 -37 7 0 -3 15 -23 33 -33 32 -55 81
-42 95 4 3 9 -4 13 -16 3 -12 9 -19 14 -16 5 2 11 -6 15 -20 8 -34 43 -62 86
-70 38 -7 78 6 78 25 0 6 -7 6 -19 -1 -27 -14 -81 -13 -81 3 0 7 14 12 37 12
29 0 38 4 41 19 4 17 0 18 -32 13 -42 -7 -66 11 -66 49 0 36 42 53 79 31 21
-12 31 -13 39 -5 28 28 -5 58 -61 58 -50 -1 -67 -12 -96 -65 -13 -25 -19 -30
-15 -15 11 42 33 79 53 90 31 16 96 12 119 -7 33 -28 33 -80 2 -85 -18 -3 -15
-9 25 -50 43 -45 45 -50 45 -106 0 -65 11 -82 52 -82 32 0 53 30 44 66 -6 24
-45 42 -65 29 -7 -4 -11 60 -13 197 l-3 203 -5 -157z m65 -288 c0 -18 -6 -26
-23 -28 -13 -2 -25 3 -28 12 -10 26 4 48 28 44 17 -2 23 -10 23 -28z"/>
<path d="M1395 3890 c-49 -49 -87 -92 -84 -94 3 -3 45 35 94 84 49 49 87 92
84 94 -3 3 -45 -35 -94 -84z"/>
<path d="M200 3954 c0 -8 5 -12 10 -9 6 3 10 10 10 16 0 5 -4 9 -10 9 -5 0
-10 -7 -10 -16z"/>
<path d="M2980 3962 c0 -5 34 -22 75 -39 41 -18 75 -28 75 -24 0 8 -27 22
-102 52 -27 10 -48 15 -48 11z"/>
<path d="M3677 3943 c-4 -3 2 -12 13 -20 16 -11 18 -21 14 -57 -5 -32 -2 -46
11 -59 21 -22 70 -22 92 1 17 16 19 15 50 -18 17 -19 35 -31 39 -27 4 4 -8 24
-28 45 -20 20 -39 47 -43 60 -9 31 -49 55 -75 47 -15 -5 -29 0 -44 14 -12 12
-25 18 -29 14z m92 -111 c-12 -5 -39 17 -39 30 0 5 11 1 24 -9 13 -10 20 -20
15 -21z"/>
<path d="M2510 3907 c0 -42 2 -44 60 -48 61 -5 63 15 3 21 -37 4 -49 9 -51 24
-4 18 1 19 99 13 135 -9 252 -36 381 -88 114 -46 142 -64 115 -75 -22 -8 -22
-26 1 -40 9 -5 34 -20 54 -32 20 -13 39 -18 42 -13 3 5 -14 21 -39 35 -45 27
-60 56 -27 56 51 0 277 -194 409 -352 36 -43 68 -77 71 -74 9 10 -107 142
-221 253 -62 60 -145 129 -185 154 -39 24 -72 49 -72 54 0 6 12 27 26 48 14
21 24 43 22 49 -2 6 -19 -13 -38 -43 -19 -30 -35 -56 -37 -58 -1 -2 -13 3 -25
11 -89 58 -321 121 -495 134 l-93 7 0 -36z"/>
<path d="M2960 3920 c0 -12 110 -61 129 -58 8 2 -17 17 -57 35 -40 18 -72 28
-72 23z"/>
<path d="M215 3901 c-3 -6 16 -9 45 -8 27 1 50 5 50 10 0 10 -88 9 -95 -2z"/>
<path d="M1845 3889 c-249 -132 -444 -315 -630 -590 l-38 -57 -34 24 c-127 86
-303 -9 -303 -164 0 -144 151 -242 282 -184 81 35 133 138 112 219 -11 43 -6
53 118 219 37 51 68 97 68 104 0 15 -98 -107 -162 -201 -41 -61 -46 -64 -57
-47 -14 23 3 53 120 206 147 193 311 337 497 439 45 24 82 47 82 49 0 8 -16 3
-55 -17z m-755 -694 c24 -24 41 -47 39 -50 -3 -2 -23 16 -44 41 l-39 45 -58
-58 c-32 -31 -58 -63 -58 -70 0 -10 25 -13 100 -13 108 0 106 2 94 -59 -6 -30
-7 -31 -65 -31 l-59 0 0 40 0 40 -40 0 c-32 0 -40 4 -40 18 0 18 104 142 119
142 4 0 27 -20 51 -45z"/>
<path d="M1012 3048 c3 -32 5 -33 51 -36 l47 -3 0 35 0 36 -51 0 -50 0 3 -32z"/>
<path d="M340 3892 c0 -5 7 -13 16 -16 10 -4 14 -1 12 6 -5 15 -28 23 -28 10z"/>
<path d="M2274 3845 c4 -27 10 -66 13 -86 l5 -37 -58 -17 c-139 -39 -280 -105
-371 -173 -77 -57 -147 -122 -140 -128 3 -4 32 17 64 45 117 105 239 173 407
226 60 19 117 35 126 35 18 0 30 -58 30 -147 0 -23 5 -45 10 -48 7 -4 8 24 4
82 -7 121 -10 131 -37 135 -19 3 -23 12 -32 75 -5 39 -14 75 -19 80 -5 4 -6
-13 -2 -42z"/>
<path d="M150 3864 c0 -14 3 -14 15 -4 8 7 15 14 15 16 0 2 -7 4 -15 4 -8 0
-15 -7 -15 -16z"/>
<path d="M2450 3764 c0 -74 4 -113 10 -109 6 4 10 53 10 116 0 66 -4 109 -10
109 -6 0 -10 -45 -10 -116z"/>
<path d="M4860 3866 c0 -9 5 -16 10 -16 6 0 10 4 10 9 0 6 -4 13 -10 16 -5 3
-10 -1 -10 -9z"/>
<path d="M4637 3832 c-24 -26 -22 -79 2 -92 67 -35 128 27 85 88 -19 27 -64
29 -87 4z m75 -27 c14 -32 -5 -57 -41 -53 -18 2 -27 10 -29 26 -7 50 49 72 70
27z"/>
<path d="M4957 3843 c-17 -16 -6 -35 18 -31 13 3 22 1 19 -3 -3 -5 -14 -9 -25
-9 -27 0 -25 -36 4 -45 19 -6 19 -8 5 -12 -21 -5 -22 -11 -5 -46 13 -30 38
-35 57 -12 10 12 8 16 -11 24 l-24 10 26 0 c47 1 56 77 13 110 -26 21 -64 28
-77 14z"/>
<path d="M105 3796 c-9 -24 -15 -52 -12 -62 3 -15 5 -16 9 -4 29 89 34 110 28
110 -5 0 -16 -20 -25 -44z"/>
<path d="M1070 3831 c0 -5 -20 -6 -45 -3 -37 4 -46 1 -52 -13 -3 -10 -14 -26
-22 -34 -66 -66 -217 -278 -206 -289 3 -4 10 0 15 8 20 35 90 135 145 205 l60
76 5 -113 c3 -62 9 -119 13 -125 6 -9 43 -13 127 -13 151 0 150 -1 150 155 0
149 -4 155 -111 155 -43 0 -79 -4 -79 -9z m-15 -31 c3 -5 3 -62 -1 -125 l-7
-116 -26 3 c-21 2 -27 9 -29 36 -3 27 0 32 17 32 12 0 21 5 21 10 0 6 -9 10
-20 10 -11 0 -20 6 -20 14 0 9 7 12 20 9 11 -3 20 0 20 6 0 6 -8 11 -19 11
-11 0 -21 9 -25 23 -8 30 -8 82 1 90 10 11 61 8 68 -3z m179 -25 c4 -13 -8
-15 -74 -15 -64 0 -80 3 -80 15 0 12 15 15 74 15 56 0 75 -4 80 -15z m1 -40
c6 -2 -27 -4 -72 -4 -46 -1 -83 3 -83 8 0 7 130 4 155 -4z m-5 -35 c0 -6 -32
-10 -75 -10 -43 0 -75 4 -75 10 0 6 32 10 75 10 43 0 75 -4 75 -10z m0 -32 c0
-5 -34 -8 -75 -8 -42 0 -75 4 -75 10 0 6 31 9 75 7 41 -1 75 -5 75 -9z m0 -27
c0 -7 -30 -11 -81 -11 -44 0 -78 4 -75 8 7 12 156 15 156 3z m0 -56 c0 -25 -1
-25 -80 -25 -47 0 -80 4 -80 10 0 6 30 10 70 10 43 0 70 4 70 11 0 6 -24 10
-65 8 -36 -1 -68 1 -72 4 -3 4 30 7 75 7 81 0 82 0 82 -25z"/>
<path d="M1006 3771 c-4 -7 -5 -15 -2 -18 9 -9 19 4 14 18 -4 11 -6 11 -12 0z"/>
<path d="M1008 3713 c7 -3 16 -2 19 1 4 3 -2 6 -13 5 -11 0 -14 -3 -6 -6z"/>
<path d="M1000 3600 c0 -5 7 -10 15 -10 8 0 15 5 15 10 0 6 -7 10 -15 10 -8 0
-15 -4 -15 -10z"/>
<path d="M1890 3830 c0 -16 33 -80 42 -80 12 0 10 6 -12 50 -20 39 -30 49 -30
30z"/>
<path d="M1840 3809 c0 -19 52 -99 61 -94 4 3 -5 28 -22 55 -31 51 -39 59 -39
39z"/>
<path d="M4552 3800 c-10 -17 -9 -27 8 -59 22 -44 36 -56 45 -41 3 5 2 10 -3
10 -5 0 -17 16 -28 35 -14 27 -16 37 -6 47 7 7 12 16 12 20 0 15 -15 8 -28
-12z"/>
<path d="M2543 3793 c-8 -3 -13 -25 -13 -59 0 -64 5 -67 112 -78 37 -4 70 -11
72 -14 2 -4 2 -20 -1 -35 l-6 -29 -117 7 c-64 4 -132 4 -151 -1 -26 -7 1 -10
108 -14 78 -3 145 -9 149 -12 3 -4 4 -14 1 -23 -5 -12 -30 -15 -144 -16 l-138
-2 139 -9 c76 -5 142 -5 147 -1 12 13 37 130 30 142 -4 6 -43 16 -86 22 -44 7
-86 17 -93 22 -8 6 -12 25 -10 46 l3 36 56 3 c74 4 221 -27 337 -70 51 -20 95
-31 98 -27 3 5 -1 11 -8 14 -7 2 -60 20 -118 39 -148 50 -322 78 -367 59z"/>
<path d="M1810 3780 c0 -19 40 -90 50 -90 15 0 12 9 -15 57 -26 43 -35 52 -35
33z"/>
<path d="M256 3755 c-15 -16 -11 -44 7 -57 15 -9 47 14 47 34 0 27 -35 41 -54
23z"/>
<path d="M1770 3765 c0 -10 42 -89 62 -117 l19 -27 44 21 c25 12 41 26 36 31
-4 4 -24 0 -44 -9 -20 -10 -38 -16 -39 -13 -2 2 -17 30 -33 61 -26 50 -45 72
-45 53z"/>
<path d="M4490 3752 c0 -7 13 -32 29 -55 15 -23 39 -62 51 -87 13 -25 25 -39
28 -32 2 7 -14 43 -36 80 -51 84 -71 111 -72 94z"/>
<path d="M1639 3688 c-98 -74 -149 -123 -149 -144 0 -9 22 -39 50 -67 59 -62
68 -46 10 17 -22 24 -40 47 -40 53 0 17 191 183 212 183 5 0 24 -24 43 -54 32
-51 55 -76 55 -61 0 10 -61 98 -81 117 -17 17 -22 15 -100 -44z"/>
<path d="M4400 3712 c0 -21 18 -42 37 -42 11 0 10 6 -2 30 -17 33 -35 40 -35
12z"/>
<path d="M4122 3698 c6 -18 28 -21 28 -4 0 9 -7 16 -16 16 -9 0 -14 -5 -12
-12z"/>
<path d="M4883 3698 c-13 -6 -23 -14 -23 -18 0 -4 20 -55 45 -113 59 -143 82
-220 106 -355 22 -131 23 -156 8 -146 -8 4 -8 -13 -2 -62 4 -38 7 -149 7 -246
-2 -166 -1 -178 17 -178 26 0 33 61 32 295 -1 291 -29 449 -123 684 -22 56
-40 106 -40 111 0 5 9 12 20 15 11 3 20 11 20 16 0 12 -39 10 -67 -3z m154
-710 c-2 -13 -4 -3 -4 22 0 25 2 35 4 23 2 -13 2 -33 0 -45z"/>
<path d="M3462 3687 c-8 -10 6 -30 58 -82 37 -39 71 -69 74 -68 44 15 42 21
-29 92 -71 73 -85 80 -103 58z m39 -24 c13 -16 12 -17 -3 -4 -17 13 -22 21
-14 21 2 0 10 -8 17 -17z m69 -77 c0 -6 -11 2 -25 18 -32 37 -32 46 0 16 14
-13 25 -28 25 -34z m32 -21 c0 -5 -5 -11 -11 -13 -6 -2 -11 4 -11 13 0 9 5 15
11 13 6 -2 11 -8 11 -13z"/>
<path d="M4020 3681 c0 -5 16 -31 36 -58 47 -61 43 -57 50 -50 5 5 -73 117
-82 117 -2 0 -4 -4 -4 -9z"/>
<path d="M2207 3645 c-167 -49 -323 -142 -449 -266 -60 -59 -70 -65 -85 -53
-32 24 -51 15 -102 -53 -50 -66 -131 -210 -131 -232 0 -25 19 -8 35 31 16 40
101 175 143 227 14 17 23 21 35 14 15 -7 11 -15 -23 -57 -103 -124 -188 -283
-214 -398 -8 -35 -18 -103 -22 -151 -6 -88 -6 -89 16 -85 19 3 22 10 24 50 1
26 5 50 8 53 3 4 45 -3 93 -14 94 -23 115 -25 115 -13 0 4 -47 18 -105 31 -58
13 -108 27 -109 30 -8 12 45 197 73 257 31 67 169 274 183 274 11 0 28 -36 28
-61 0 -13 -15 -35 -39 -55 -36 -32 -102 -129 -116 -173 -5 -17 1 -25 28 -41
l35 -21 -15 -59 c-27 -108 7 -125 39 -20 11 36 25 71 31 78 6 7 6 12 1 10 -18
-6 -94 35 -94 51 0 9 9 31 20 49 21 35 23 35 75 -4 54 -39 96 -57 108 -45 8 8
7 11 -3 11 -19 0 -129 72 -135 89 -3 9 12 32 37 58 l42 43 38 -40 c21 -22 43
-40 48 -40 15 0 12 11 -5 24 -13 10 -9 18 29 55 28 28 50 42 60 38 12 -5 1
-27 -50 -103 -35 -54 -62 -100 -58 -103 3 -3 8 -1 12 5 59 92 130 187 144 195
14 8 20 3 32 -26 8 -19 22 -38 31 -41 25 -10 28 3 6 25 -12 12 -21 27 -21 35
0 7 -7 19 -15 26 -12 10 -18 10 -30 0 -12 -10 -19 -10 -27 -2 -26 26 -57 13
-95 -39 l-38 -50 -27 31 c-16 16 -28 38 -28 48 0 10 -6 27 -14 38 -13 19 -9
25 68 93 160 141 295 213 484 261 25 7 42 17 42 25 0 20 -20 18 -113 -10z"/>
<path d="M3974 3635 c3 -9 24 -43 47 -76 57 -84 152 -285 189 -398 121 -373
132 -843 26 -1148 -14 -40 -21 -73 -16 -73 14 0 66 175 85 285 23 133 23 416
1 580 -30 216 -93 428 -179 600 -59 120 -181 302 -153 230z"/>
<path d="M4156 3638 c21 -36 47 -69 51 -64 7 7 -37 76 -48 76 -6 0 -7 -6 -3
-12z"/>
<path d="M1921 3619 c-18 -11 -31 -23 -28 -26 6 -5 77 34 77 43 0 9 -16 3 -49
-17z"/>
<path d="M3718 3568 c72 -93 132 -197 132 -231 0 -25 2 -27 14 -17 18 14 14
26 -42 122 -52 88 -127 188 -142 188 -6 0 12 -28 38 -62z"/>
<path d="M4456 3612 c-8 -14 93 -206 110 -210 27 -6 14 43 -34 127 -46 82 -64
102 -76 83z"/>
<path d="M3262 3601 c2 -5 29 -30 60 -55 52 -42 213 -224 225 -254 6 -15 -22
-40 -99 -88 -32 -19 -58 -42 -58 -49 0 -8 16 -43 34 -77 42 -75 102 -252 112
-326 l7 -53 -68 3 -68 3 -18 76 c-22 95 -67 198 -135 310 l-52 87 44 36 c46
39 58 76 25 76 -21 0 -121 -75 -121 -91 0 -5 17 -36 38 -67 90 -133 142 -252
171 -386 l18 -81 89 0 89 0 -2 60 c-2 73 -49 228 -106 344 l-41 84 25 16 c88
58 143 98 152 113 9 13 0 31 -45 90 -31 40 -93 109 -137 152 -68 68 -82 78
-95 67 -13 -11 -17 -10 -22 3 -3 9 -11 16 -16 16 -5 0 -8 -4 -6 -9z m8 -340
c0 -14 -80 -74 -88 -67 -3 4 11 23 33 41 41 35 55 42 55 26z"/>
<path d="M1787 3582 c3 -12 -9 -28 -36 -50 -43 -34 -56 -38 -67 -21 -4 7 10
26 32 45 21 18 35 33 29 33 -5 1 -27 -14 -49 -32 -36 -30 -38 -35 -25 -55 21
-34 34 -33 89 8 29 22 57 41 63 43 6 2 2 13 -9 25 -22 27 -34 28 -27 4z"/>
<path d="M270 3565 c0 -9 5 -15 11 -13 6 2 11 8 11 13 0 5 -5 11 -11 13 -6 2
-11 -4 -11 -13z"/>
<path d="M325 3570 c-3 -6 1 -7 9 -4 9 3 16 1 16 -5 0 -6 -5 -11 -11 -11 -5 0
-7 -5 -4 -10 9 -15 25 -2 25 21 0 20 -24 26 -35 9z"/>
<path d="M2890 3563 c0 -5 42 -28 93 -53 105 -51 122 -57 112 -41 -6 10 -187
101 -201 101 -2 0 -4 -3 -4 -7z"/>
<path d="M4195 3535 c-16 -14 -36 -25 -42 -25 -7 0 -13 -7 -13 -16 0 -18 -6
-20 73 31 15 9 27 21 27 26 0 15 -13 10 -45 -16z"/>
<path d="M4110 3540 c0 -5 7 -10 16 -10 8 0 12 5 9 10 -3 6 -10 10 -16 10 -5
0 -9 -4 -9 -10z"/>
<path d="M4846 3542 c-5 -8 27 -97 40 -111 12 -13 13 13 3 52 -12 48 -32 76
-43 59z"/>
<path d="M2826 3477 c-34 -77 -49 -126 -43 -141 7 -17 196 -118 208 -110 18
11 7 20 -86 69 -56 29 -95 56 -95 65 0 8 12 40 26 70 43 91 45 100 29 100 -9
0 -26 -23 -39 -53z"/>
<path d="M120 3510 c0 -5 7 -10 16 -10 8 0 12 5 9 10 -3 6 -10 10 -16 10 -5 0
-9 -4 -9 -10z"/>
<path d="M3260 3501 c-6 -11 -33 -47 -60 -80 -28 -33 -50 -64 -50 -69 0 -13
48 -33 55 -22 3 5 -4 11 -15 15 -18 6 -14 14 42 76 35 39 63 75 63 81 0 20
-23 20 -35 -1z"/>
<path d="M1446 3503 c-8 -8 86 -113 101 -113 7 0 13 1 13 3 0 9 -109 114 -114
110z"/>
<path d="M2076 3488 c-21 -30 -20 -54 4 -78 39 -39 100 -14 100 43 0 55 -73
79 -104 35z m78 -20 c14 -23 -3 -52 -32 -56 -29 -4 -51 40 -32 63 16 20 49 16
64 -7z"/>
<path d="M2104 3459 c-8 -14 11 -33 25 -25 6 4 11 14 11 22 0 16 -26 19 -36 3z"/>
<path d="M2900 3491 c0 -6 36 -29 80 -52 92 -47 98 -62 55 -138 -28 -49 -29
-51 -15 -51 6 0 23 20 39 45 l29 46 31 -38 c17 -20 34 -34 38 -30 3 4 -7 22
-24 40 -17 17 -38 48 -46 67 -11 28 -29 43 -94 78 -86 45 -93 47 -93 33z"/>
<path d="M390 3469 c0 -5 5 -7 10 -4 6 3 10 8 10 11 0 2 -4 4 -10 4 -5 0 -10
-5 -10 -11z"/>
<path d="M726 3461 c-4 -5 -2 -12 3 -15 5 -4 12 -2 15 3 4 5 2 12 -3 15 -5 4
-12 2 -15 -3z"/>
<path d="M776 3445 c-9 -13 -16 -38 -16 -55 0 -23 4 -30 20 -30 16 0 20 7 20
33 0 17 3 42 6 55 8 29 -10 28 -30 -3z"/>
<path d="M2430 3461 c0 -6 7 -11 15 -11 10 0 15 -10 15 -34 0 -33 -2 -35 -50
-45 -28 -6 -57 -11 -64 -11 -7 0 -36 -7 -64 -15 -49 -15 -52 -17 -46 -43 12
-53 25 -57 103 -39 38 9 99 17 135 17 l66 0 0 -71 c0 -49 3 -68 11 -63 8 4 10
27 6 65 -3 33 -1 61 3 64 15 9 146 -22 217 -53 71 -29 152 -80 212 -132 l35
-30 -29 -30 c-16 -16 -32 -30 -37 -30 -5 0 -33 20 -64 45 -30 25 -76 56 -102
69 -56 29 -157 59 -175 53 -6 -2 15 -12 48 -21 91 -27 154 -63 221 -127 33
-33 65 -59 70 -59 6 0 27 18 49 40 46 47 48 47 116 -58 54 -82 82 -150 100
-243 14 -73 19 -81 37 -70 11 7 11 20 -3 76 -14 56 -15 69 -4 76 17 10 26 -4
34 -53 4 -21 11 -38 16 -38 23 0 -8 79 -76 195 -136 232 -386 408 -610 430
-33 3 -79 8 -102 11 l-43 5 0 66 0 66 83 -7 c45 -3 100 -9 122 -12 32 -5 38
-4 28 6 -16 17 -273 28 -273 11z m20 -118 c0 -14 -16 -21 -78 -34 -42 -8 -84
-19 -93 -23 -25 -11 -33 21 -8 35 18 9 132 35 167 38 6 1 12 -7 12 -16z"/>
<path d="M190 3450 c0 -5 5 -10 10 -10 6 0 10 5 10 10 0 6 -4 10 -10 10 -5 0
-10 -4 -10 -10z"/>
<path d="M3345 3440 c3 -5 11 -10 16 -10 6 0 7 5 4 10 -3 6 -11 10 -16 10 -6
0 -7 -4 -4 -10z"/>
<path d="M3650 3440 c0 -5 7 -10 15 -10 8 0 15 5 15 10 0 6 -7 10 -15 10 -8 0
-15 -4 -15 -10z"/>
<path d="M4632 3428 c-34 -17 -36 -48 -9 -114 44 -105 101 -368 126 -584 l8
-75 1 65 c3 129 -56 435 -112 584 -14 38 -26 74 -26 82 0 25 52 43 98 34 71
-13 96 -49 67 -98 -15 -25 -15 -32 -2 -63 13 -31 13 -40 -1 -75 -9 -21 -19
-40 -24 -42 -17 -7 -7 -32 12 -32 14 0 20 7 20 23 1 21 2 20 16 -6 36 -66 123
-49 124 24 0 14 -5 30 -11 36 -8 8 -3 24 15 59 14 27 26 55 26 61 0 17 -16 17
-23 1 -3 -9 -25 -12 -76 -10 -69 4 -72 5 -56 22 26 28 8 81 -35 102 -39 20
-103 22 -138 6z m285 -160 c-5 -17 -109 -17 -115 0 -2 8 15 12 58 12 45 0 61
-3 57 -12z m-17 -35 c0 -15 -15 -28 -35 -31 -11 -2 -31 -13 -44 -25 -23 -21
-24 -21 -16 -2 4 11 10 30 12 43 4 18 12 22 44 22 22 0 39 -3 39 -7z m7 -69
c10 -26 -11 -49 -43 -49 -30 0 -42 20 -30 51 8 20 65 18 73 -2z"/>
<path d="M66 3404 c-22 -21 -20 -50 5 -75 27 -27 69 -22 88 12 13 24 13 29 -2
53 -20 30 -66 35 -91 10z m79 -24 c4 -12 1 -27 -5 -35 -27 -33 -78 -5 -65 35
4 14 15 20 35 20 20 0 31 -6 35 -20z"/>
<path d="M92 3368 c6 -18 28 -21 28 -4 0 9 -7 16 -16 16 -9 0 -14 -5 -12 -12z"/>
<path d="M3260 3410 c0 -9 18 -34 41 -55 22 -22 56 -61 76 -87 43 -59 65 -64
25 -5 -46 65 -141 164 -142 147z"/>
<path d="M3388 3393 c34 -48 91 -108 92 -98 0 14 -90 125 -101 125 -6 0 -1
-12 9 -27z"/>
<path d="M1112 3401 c2 -7 7 -12 11 -12 12 1 9 15 -3 20 -7 2 -11 -2 -8 -8z"/>
<path d="M2855 3401 c-6 -11 -3 -13 73 -53 50 -27 91 -31 77 -8 -7 12 -119 70
-134 70 -5 0 -12 -4 -16 -9z"/>
<path d="M2595 3380 c45 -11 87 -11 80 0 -3 6 -30 9 -58 9 -45 -1 -48 -2 -22
-9z"/>
<path d="M4200 3369 c-11 -19 -10 -20 9 -9 22 11 29 30 11 30 -5 0 -14 -9 -20
-21z"/>
<path d="M4709 3364 c-11 -14 -11 -18 5 -29 24 -18 48 -8 44 19 -4 26 -30 32
-49 10z m31 -14 c0 -5 -4 -10 -10 -10 -5 0 -10 5 -10 10 0 6 5 10 10 10 6 0
10 -4 10 -10z"/>
<path d="M690 3340 c0 -5 5 -10 10 -10 6 0 10 5 10 10 0 6 -4 10 -10 10 -5 0
-10 -4 -10 -10z"/>
<path d="M366 3276 c-24 -81 -30 -116 -20 -116 13 0 54 153 44 163 -4 5 -15
-16 -24 -47z"/>
<path d="M1477 3323 c-12 -11 -8 -23 8 -23 8 0 15 7 15 15 0 16 -12 20 -23 8z"/>
<path d="M676 3305 c-3 -8 -1 -15 4 -15 6 0 10 7 10 15 0 8 -2 15 -4 15 -2 0
-6 -7 -10 -15z"/>
<path d="M1070 3310 c0 -5 5 -10 11 -10 5 0 7 5 4 10 -3 6 -8 10 -11 10 -2 0
-4 -4 -4 -10z"/>
<path d="M4210 3313 c1 -18 18 -35 24 -24 4 6 4 16 1 21 -7 12 -25 13 -25 3z"/>
<path d="M181 3289 c-13 -10 -31 -19 -40 -19 -9 0 -23 -5 -31 -11 -11 -8 -4
-9 28 -5 44 7 77 28 70 45 -2 5 -14 1 -27 -10z"/>
<path d="M4570 3308 c0 -1 11 -35 24 -74 13 -39 34 -135 47 -215 12 -79 27
-148 32 -154 6 -6 8 -1 4 15 -3 14 -8 54 -11 90 l-5 65 15 -65 c8 -36 17 -116
21 -178 3 -62 10 -115 16 -119 13 -8 2 178 -18 292 -17 97 -96 337 -113 343
-7 2 -12 2 -12 0z"/>
<path d="M1357 3294 c-8 -8 1 -24 14 -24 5 0 9 7 9 15 0 15 -12 20 -23 9z"/>
<path d="M2122 3278 c-13 -13 -16 -38 -4 -38 16 0 52 32 47 41 -8 13 -29 11
-43 -3z"/>
<path d="M655 3260 c-3 -5 -1 -10 4 -10 6 0 11 5 11 10 0 6 -2 10 -4 10 -3 0
-8 -4 -11 -10z"/>
<path d="M4240 3255 c0 -8 5 -15 10 -15 6 0 10 7 10 15 0 8 -4 15 -10 15 -5 0
-10 -7 -10 -15z"/>
<path d="M1320 3242 c0 -10 50 -35 57 -28 3 2 -9 12 -26 21 -17 8 -31 12 -31
7z"/>
<path d="M3724 3231 c-65 -29 -114 -110 -114 -185 1 -72 64 -156 136 -181 l39
-13 3 -104 c3 -113 6 -133 23 -123 8 5 8 10 0 18 -6 6 -11 52 -11 109 0 91 1
98 20 98 19 0 20 -7 20 -99 0 -84 3 -102 21 -125 17 -22 28 -26 67 -25 l47 1
-38 8 c-67 13 -79 34 -85 147 l-4 99 40 18 c23 10 50 28 61 40 69 74 66 223
-6 288 -53 48 -149 61 -219 29z m116 -80 c0 -5 23 -35 51 -66 29 -30 50 -58
47 -60 -2 -3 -28 20 -58 50 l-53 54 -48 -42 c-27 -23 -49 -45 -49 -49 0 -5 20
-8 44 -8 24 0 48 -6 54 -12 15 -19 18 -43 7 -48 -5 -3 -11 4 -14 15 -5 28 -19
35 -73 35 -27 0 -48 3 -48 6 0 8 123 130 133 132 4 1 7 -2 7 -7z"/>
<path d="M2135 3193 c-104 -60 -281 -234 -237 -233 4 0 23 22 42 47 45 59 145
142 221 183 32 17 59 35 59 41 0 13 3 14 -85 -38z"/>
<path d="M636 3211 c-4 -7 -5 -15 -2 -18 9 -9 19 4 14 18 -4 11 -6 11 -12 0z"/>
<path d="M4250 3213 c0 -5 5 -15 10 -23 8 -12 10 -11 10 8 0 12 -4 22 -10 22
-5 0 -10 -3 -10 -7z"/>
<path d="M230 3201 c0 -6 5 -13 10 -16 6 -3 10 1 10 9 0 9 -4 16 -10 16 -5 0
-10 -4 -10 -9z"/>
<path d="M1300 3201 c0 -10 24 -21 43 -21 7 0 3 7 -7 15 -22 17 -36 19 -36 6z"/>
<path d="M91 3150 c-6 -28 -16 -83 -21 -123 -6 -39 -12 -84 -15 -99 -2 -16 -1
-28 4 -28 5 0 12 24 16 53 6 55 33 200 41 230 3 9 1 17 -4 17 -6 0 -15 -23
-21 -50z"/>
<path d="M135 3153 c-3 -21 -8 -48 -11 -60 -2 -12 0 -24 5 -27 4 -3 11 13 15
37 3 23 9 52 12 65 4 13 2 22 -4 22 -6 0 -14 -17 -17 -37z"/>
<path d="M2371 3175 c-35 -8 -66 -17 -70 -21 -3 -4 8 -4 24 -1 17 4 58 10 93
13 34 4 65 11 68 15 7 13 -40 10 -115 -6z"/>
<path d="M3080 3188 c0 -14 23 -58 32 -58 4 0 8 3 8 8 -1 9 -39 59 -40 50z"/>
<path d="M180 3163 c-1 -4 -5 -27 -9 -51 -5 -23 -5 -44 -1 -47 4 -3 12 18 17
45 6 28 6 53 2 56 -5 3 -9 2 -9 -3z"/>
<path d="M617 3156 c-4 -10 -5 -21 -2 -24 9 -9 17 6 13 25 -3 17 -4 17 -11 -1z"/>
<path d="M4270 3144 c0 -8 5 -12 10 -9 6 3 10 10 10 16 0 5 -4 9 -10 9 -5 0
-10 -7 -10 -16z"/>
<path d="M1690 3145 c0 -12 92 -56 106 -51 13 5 8 12 -20 31 -32 22 -86 34
-86 20z"/>
<path d="M3463 3138 c3 -7 22 -50 42 -95 41 -94 84 -254 87 -325 1 -27 7 -52
12 -55 16 -10 -2 122 -30 226 -25 92 -96 261 -109 261 -4 0 -5 -6 -2 -12z"/>
<path d="M3278 3135 c-4 -4 13 -44 37 -90 24 -45 49 -101 56 -124 7 -23 18
-41 26 -41 18 0 12 21 -33 115 -43 90 -78 147 -86 140z"/>
<path d="M4370 3105 c-19 -8 -45 -14 -57 -14 -12 -1 -25 -6 -29 -13 -8 -13 72
-3 91 11 5 5 27 11 47 14 37 6 38 5 48 -34 6 -21 15 -39 20 -39 5 0 3 19 -4
43 -11 38 -15 42 -46 44 -19 0 -51 -5 -70 -12z"/>
<path d="M600 3100 c0 -5 5 -10 10 -10 6 0 10 5 10 10 0 6 -4 10 -10 10 -5 0
-10 -4 -10 -10z"/>
<path d="M586 3048 c-8 -32 -7 -48 3 -48 5 0 11 16 13 35 4 39 -6 48 -16 13z"/>
<path d="M3185 3061 c-6 -11 9 -23 19 -14 9 9 7 23 -3 23 -6 0 -12 -4 -16 -9z"/>
<path d="M4130 3055 c0 -8 5 -15 10 -15 6 0 10 7 10 15 0 8 -4 15 -10 15 -5 0
-10 -7 -10 -15z"/>
<path d="M183 3042 c-17 -11 -33 -59 -26 -79 3 -10 13 -26 21 -35 12 -15 13
-25 2 -65 -31 -123 -21 -431 21 -637 22 -109 69 -266 79 -266 5 0 -3 34 -16
76 -60 196 -88 412 -81 636 5 189 16 238 52 238 41 0 69 75 45 121 -8 14 -21
19 -48 19 -20 0 -42 -4 -49 -8z m38 -51 c-13 -8 -13 -12 0 -27 12 -15 12 -17
-1 -12 -23 7 -26 48 -3 48 15 0 15 -2 4 -9z"/>
<path d="M2092 3005 c-26 -24 -42 -44 -37 -44 15 0 111 89 97 89 -7 0 -34 -20
-60 -45z"/>
<path d="M2704 3039 c-8 -14 11 -33 25 -25 6 4 11 11 11 16 0 13 -29 20 -36 9z"/>
<path d="M1644 3021 c25 -27 124 -82 131 -71 3 5 -25 26 -62 47 -86 49 -92 51
-69 24z"/>
<path d="M2230 2993 c-29 -16 -76 -49 -104 -74 -53 -48 -95 -109 -77 -109 6 0
11 4 11 9 0 24 105 122 165 152 36 19 65 37 65 42 0 10 0 10 -60 -20z"/>
<path d="M2770 3011 c0 -6 5 -13 10 -16 6 -3 10 1 10 9 0 9 -4 16 -10 16 -5 0
-10 -4 -10 -9z"/>
<path d="M4915 3000 c-3 -5 1 -10 9 -10 9 0 16 5 16 10 0 6 -4 10 -9 10 -6 0
-13 -4 -16 -10z"/>
<path d="M1390 2964 c-9 -24 -40 -155 -40 -170 0 -2 -61 -4 -135 -4 l-135 0 0
40 c0 22 -4 40 -10 40 -5 0 -10 -20 -10 -45 l0 -45 141 0 140 0 -3 -77 c-2
-47 1 -79 7 -80 6 -1 9 8 7 21 -4 28 23 200 44 280 16 62 12 88 -6 40z"/>
<path d="M4510 2985 c0 -6 10 -57 22 -115 19 -91 22 -138 22 -345 0 -211 -2
-252 -22 -341 -49 -227 -118 -413 -213 -578 -54 -94 -61 -130 -9 -50 43 69
111 213 153 324 119 320 147 661 80 1010 -9 47 -20 89 -24 95 -6 5 -9 5 -9 0z"/>
<path d="M2394 2966 c-66 -15 -144 -51 -144 -66 0 -5 15 -1 33 10 57 34 153
53 242 48 119 -8 184 -36 269 -119 38 -38 71 -67 73 -65 8 8 -60 87 -105 120
-97 71 -245 100 -368 72z"/>
<path d="M2790 2966 c0 -2 17 -21 37 -42 20 -21 52 -63 71 -92 40 -63 56 -63
19 0 -41 70 -127 161 -127 134z"/>
<path d="M4780 2960 c-19 -12 76 -12 105 0 14 6 5 9 -35 9 -30 0 -62 -4 -70
-9z"/>
<path d="M1706 2922 c-3 -5 -14 -41 -25 -82 -11 -40 -22 -74 -24 -76 -2 -2
-35 5 -73 16 -69 20 -134 27 -120 13 8 -9 97 -29 167 -39 l47 -7 7 34 c12 60
36 129 46 129 5 0 9 5 9 10 0 12 -27 13 -34 2z"/>
<path d="M2944 2880 c19 -22 52 -72 71 -111 20 -39 39 -69 42 -66 17 17 -111
217 -139 217 -6 0 6 -18 26 -40z"/>
<path d="M765 2900 c-4 -6 -3 -16 3 -22 6 -6 12 -6 17 2 4 6 3 16 -3 22 -6 6
-12 6 -17 -2z"/>
<path d="M3021 2905 c2 -5 21 -44 41 -85 21 -41 44 -100 51 -130 8 -29 19 -56
26 -58 14 -5 15 -6 -10 74 -25 82 -70 174 -95 195 -9 8 -15 10 -13 4z"/>
<path d="M2395 2890 c3 -6 52 -10 110 -10 58 0 107 4 110 10 4 6 -35 10 -110
10 -75 0 -114 -4 -110 -10z"/>
<path d="M4092 2879 c2 -6 8 -10 13 -10 5 0 11 4 13 10 2 6 -4 11 -13 11 -9 0
-15 -5 -13 -11z"/>
<path d="M4790 2880 c0 -13 100 -13 120 0 11 7 -5 10 -52 10 -39 0 -68 -4 -68
-10z"/>
<path d="M1787 2873 c-4 -3 -7 -16 -6 -27 0 -19 1 -19 10 3 10 24 8 36 -4 24z"/>
<path d="M1821 2835 c-12 -26 -30 -77 -39 -114 -9 -36 -21 -69 -27 -74 -13 -9
-58 1 -67 16 -4 6 -10 8 -14 4 -16 -16 20 -37 66 -37 l48 0 16 71 c9 39 25 91
36 117 28 62 9 77 -19 17z"/>
<path d="M436 2833 c-11 -63 -19 -287 -12 -326 l7 -37 77 2 77 2 -70 5 -70 6
1 193 c1 105 0 192 -1 192 -1 0 -5 -17 -9 -37z"/>
<path d="M953 2854 c-4 -10 -8 -86 -8 -169 l0 -150 83 -3 82 -3 0 -99 c0 -55
3 -100 8 -100 4 0 6 45 4 100 l-3 100 273 0 273 0 1 -67 c1 -171 101 -381 245
-518 104 -99 190 -149 292 -171 71 -15 81 -9 93 53 8 41 4 44 -61 67 -27 10
-80 36 -117 57 -36 22 -71 39 -77 39 -6 0 -18 -11 -27 -25 -15 -23 -44 -35
-44 -18 0 4 16 23 35 43 35 36 35 36 15 55 -20 18 -20 18 -20 -6 0 -13 -12
-37 -27 -54 l-26 -30 -60 65 c-114 125 -183 280 -195 440 l-7 85 -283 0 -282
0 0 48 c0 46 1 47 31 47 17 0 28 -4 24 -10 -8 -13 11 -46 30 -54 22 -8 51 9
58 34 9 35 -18 50 -88 50 l-64 0 -3 -57 -3 -58 -61 -3 c-80 -4 -94 9 -94 86 0
31 5 97 10 147 9 89 7 115 -7 79z m285 -237 c2 -12 -3 -17 -17 -17 -15 0 -21
6 -21 21 0 25 33 22 38 -4z"/>
<path d="M1000 2809 c0 -35 5 -71 10 -79 7 -10 8 9 4 60 -8 94 -14 102 -14 19z"/>
<path d="M98 2854 c-5 -4 -7 -35 -7 -68 l1 -61 9 55 c10 59 9 87 -3 74z"/>
<path d="M2330 2850 c0 -6 62 -10 165 -10 103 0 165 4 165 10 0 6 -62 10 -165
10 -103 0 -165 -4 -165 -10z"/>
<path d="M686 2841 c-12 -19 -26 -233 -16 -250 8 -14 9 -14 14 -1 12 34 26
244 18 252 -6 6 -12 6 -16 -1z"/>
<path d="M472 2683 l3 -158 103 -3 102 -3 0 -33 c0 -93 78 -396 101 -396 12 0
12 -4 -12 59 -25 67 -65 236 -74 314 l-6 57 65 0 c36 0 68 5 71 10 5 8 -49 10
-167 10 l-173 -2 1 151 c1 83 -3 151 -8 151 -5 0 -7 -71 -6 -157z"/>
<path d="M3420 2821 c0 -11 5 -23 10 -26 6 -3 10 3 10 14 0 11 -4 23 -10 26
-5 3 -10 -3 -10 -14z"/>
<path d="M740 2809 c0 -5 5 -7 10 -4 6 3 10 8 10 11 0 2 -4 4 -10 4 -5 0 -10
-5 -10 -11z"/>
<path d="M1766 2811 c-4 -7 -5 -15 -2 -18 9 -9 19 4 14 18 -4 11 -6 11 -12 0z"/>
<path d="M4915 2781 c-6 -11 9 -23 19 -14 9 9 7 23 -3 23 -6 0 -12 -4 -16 -9z"/>
<path d="M3661 2668 c0 -54 3 -98 7 -98 5 0 7 37 5 83 -6 120 -11 126 -12 15z"/>
<path d="M4480 2745 c-9 -11 -10 -31 -4 -72 l8 -58 6 57 c7 75 20 85 20 15 0
-31 5 -59 10 -62 6 -4 10 20 10 64 0 63 -2 71 -19 71 -10 0 -24 -7 -31 -15z"/>
<path d="M780 2670 c0 -47 4 -80 10 -80 6 0 10 33 10 80 0 47 -4 80 -10 80 -6
0 -10 -33 -10 -80z"/>
<path d="M4107 2735 c-7 -16 8 -29 23 -20 15 9 12 35 -4 35 -8 0 -16 -7 -19
-15z"/>
<path d="M2080 2712 c-56 -27 -85 -96 -85 -202 0 -71 4 -92 23 -126 36 -62 64
-74 176 -74 l97 0 -3 103 -3 102 -52 3 -53 3 0 -60 c0 -34 -4 -61 -9 -61 -4 0
-20 9 -35 21 -22 17 -26 28 -26 70 0 50 13 87 34 101 6 4 37 8 68 8 31 0 63 3
72 6 22 8 22 87 0 108 -23 23 -157 22 -204 -2z"/>
<path d="M275 2540 c3 -140 9 -209 25 -285 26 -126 30 -136 40 -130 4 3 0 38
-10 77 -27 106 -41 212 -50 377 l-8 146 3 -185z"/>
<path d="M1969 2622 c-20 -67 -17 -217 4 -266 23 -52 30 -42 12 19 -19 61 -19
178 -1 238 8 26 11 49 6 52 -4 2 -14 -17 -21 -43z"/>
<path d="M2447 2653 c-12 -12 -7 -50 8 -63 30 -25 72 11 60 51 -6 19 -54 27
-68 12z"/>
<path d="M2820 2641 c-25 -47 36 -83 64 -38 8 12 8 22 0 35 -16 25 -51 27 -64
3z"/>
<path d="M4140 2637 c0 -17 -8 -25 -32 -32 -25 -8 -38 -21 -53 -52 -17 -36
-25 -42 -51 -43 -19 0 -39 -9 -54 -25 -21 -22 -32 -25 -91 -25 -69 0 -86 10
-73 45 4 8 1 15 -5 15 -6 0 -11 -14 -11 -30 0 -37 27 -50 99 -50 35 0 58 7 85
25 54 36 86 32 101 -13 7 -25 59 -62 88 -62 10 0 17 -8 17 -20 0 -11 5 -20 10
-20 6 0 10 9 10 21 0 11 13 31 29 45 16 13 32 35 35 49 4 16 13 25 26 25 11 0
20 5 20 10 0 6 -9 10 -20 10 -14 0 -20 7 -20 21 0 24 -51 79 -74 79 -10 0 -16
9 -16 25 0 14 -4 25 -10 25 -5 0 -10 -10 -10 -23z m57 -71 c50 -43 30 -134
-33 -150 -84 -21 -135 107 -62 158 32 22 62 20 95 -8z"/>
<path d="M4100 2531 c-15 -28 -12 -46 8 -64 37 -34 82 -15 82 33 0 14 -5 31
-12 38 -19 19 -66 15 -78 -7z m54 3 c23 -9 20 -24 -5 -24 -11 0 -17 -4 -14
-10 4 -6 16 -8 27 -4 15 4 19 2 16 -7 -3 -8 -18 -14 -34 -14 -32 0 -44 26 -24
50 14 17 13 17 34 9z"/>
<path d="M1455 2630 c3 -6 50 -10 106 -10 64 0 98 4 94 10 -3 6 -50 10 -106
10 -64 0 -98 -4 -94 -10z"/>
<path d="M2936 2624 c-3 -9 -6 -73 -6 -143 0 -153 8 -171 75 -171 50 0 64 13
41 39 -11 12 -16 36 -16 74 0 54 1 57 26 57 23 0 25 3 22 43 -2 35 -7 43 -25
45 -15 2 -23 10 -23 22 0 39 -11 50 -50 50 -25 0 -40 -5 -44 -16z"/>
<path d="M3480 2600 l-115 -6 123 -2 c80 -1 121 2 117 8 -3 6 -7 9 -8 8 -1 -1
-54 -5 -117 -8z"/>
<path d="M4920 2561 c0 -28 5 -51 10 -51 6 0 10 20 10 44 0 25 -4 48 -10 51
-6 4 -10 -13 -10 -44z"/>
<path d="M4970 2584 c0 -8 5 -12 10 -9 6 4 8 11 5 16 -9 14 -15 11 -15 -7z"/>
<path d="M1734 2555 c-10 -26 5 -155 27 -235 20 -74 61 -164 79 -175 20 -12
21 24 2 62 -34 65 -62 174 -70 267 -4 57 -12 91 -19 94 -7 2 -16 -4 -19 -13z"/>
<path d="M2335 2557 c-3 -7 -4 -65 -3 -128 l3 -114 40 0 40 0 0 125 0 125 -38
3 c-25 2 -39 -1 -42 -11z"/>
<path d="M2444 2557 c-2 -7 -3 -65 -2 -128 l3 -114 38 -3 37 -3 0 130 0 131
-35 0 c-20 0 -38 -6 -41 -13z"/>
<path d="M2540 2471 l0 -99 46 -41 c26 -23 52 -41 59 -41 21 0 115 81 121 103
3 12 4 56 2 97 l-3 75 -37 3 c-35 3 -37 1 -42 -30 -3 -18 -7 -53 -8 -78 -3
-37 -6 -45 -23 -45 -16 0 -21 8 -23 35 -1 19 -5 54 -8 78 -5 41 -6 42 -45 42
l-39 0 0 -99z"/>
<path d="M2822 2558 c-8 -8 -12 -52 -12 -130 l0 -118 45 0 45 0 0 124 c0 104
-3 125 -16 130 -25 9 -49 7 -62 -6z"/>
<path d="M5000 2550 c-11 -11 -20 -27 -20 -35 0 -16 34 -55 48 -55 4 0 13 9
20 20 7 11 19 20 27 20 17 0 10 25 -13 53 -20 22 -37 22 -62 -3z m56 -15 c7
-18 -13 -45 -33 -45 -19 0 -28 27 -13 45 16 19 39 19 46 0z"/>
<path d="M4486 2529 c-9 -30 -16 -249 -8 -249 5 0 12 57 16 126 6 117 3 158
-8 123z"/>
<path d="M4516 2418 c-4 -68 -9 -134 -13 -148 -4 -19 -3 -22 6 -14 7 6 14 55
17 115 3 57 7 119 9 137 2 17 0 32 -4 32 -4 0 -11 -55 -15 -122z"/>
<path d="M4740 2460 c0 -47 4 -80 10 -80 6 0 10 33 10 80 0 47 -4 80 -10 80
-6 0 -10 -33 -10 -80z"/>
<path d="M3721 2478 c-1 -27 3 -48 7 -48 4 0 6 17 4 38 -5 58 -10 62 -11 10z"/>
<path d="M4613 2475 c0 -27 2 -38 4 -22 2 15 2 37 0 50 -2 12 -4 0 -4 -28z"/>
<path d="M4636 2488 c-3 -18 -7 -89 -10 -158 -7 -200 -61 -412 -157 -620 -38
-82 -53 -105 -69 -105 -11 0 -20 -5 -19 -10 0 -10 41 -10 65 -1 15 6 84 140
103 198 7 21 18 41 25 45 13 8 49 109 60 168 17 88 35 248 42 373 6 101 4 126
-7 133 -23 14 -28 11 -33 -23z"/>
<path d="M3233 2492 c-5 -4 -14 -37 -20 -73 -13 -77 -47 -165 -94 -247 -46
-78 -190 -219 -267 -262 -99 -55 -95 -52 -81 -83 8 -19 9 -31 2 -38 -5 -5 -54
-19 -108 -30 -142 -29 -136 -24 -133 -127 l3 -87 33 -3 c40 -4 260 37 268 50
12 20 -8 20 -110 -1 -58 -11 -118 -21 -134 -21 -27 0 -30 3 -34 40 l-3 39 45
7 c68 9 159 33 214 57 41 17 50 18 56 6 19 -32 39 -54 45 -48 5 5 -32 69 -50
87 -2 2 -35 -8 -73 -22 -54 -19 -210 -56 -238 -56 -2 0 -4 7 -4 15 0 19 25 31
80 40 79 12 124 27 160 55 19 14 58 39 85 55 230 132 377 324 419 544 8 46 18
87 22 90 3 3 84 6 180 6 96 0 174 4 174 8 0 9 -423 8 -437 -1z"/>
<path d="M4700 2446 c0 -31 5 -56 10 -56 6 0 10 22 10 49 0 28 -4 53 -10 56
-6 4 -10 -15 -10 -49z"/>
<path d="M75 2387 c3 -43 10 -88 15 -100 13 -28 2 112 -11 151 -6 18 -7 1 -4
-51z"/>
<path d="M814 2449 c-3 -6 0 -17 8 -25 13 -13 16 -13 27 0 7 8 10 20 6 26 -8
13 -32 13 -41 -1z"/>
<path d="M3577 2435 c-41 -178 -62 -247 -95 -315 -22 -44 -35 -80 -30 -80 32
0 145 332 136 399 l-4 26 -7 -30z"/>
<path d="M1490 2441 c0 -5 -18 -12 -40 -16 -22 -4 -42 -10 -44 -13 -15 -26 79
-261 132 -330 l18 -23 27 21 c15 12 27 29 27 38 0 9 -16 55 -35 102 -19 47
-42 118 -52 158 -9 39 -20 72 -25 72 -4 0 -8 -4 -8 -9z m0 -73 c6 -24 14 -52
17 -63 3 -11 21 -57 40 -103 21 -49 32 -89 28 -100 -6 -16 -8 -15 -22 3 -40
52 -130 285 -115 299 3 4 13 6 23 6 13 0 21 -12 29 -42z"/>
<path d="M234 2403 c3 -16 8 -52 11 -80 4 -29 11 -53 17 -53 6 0 8 10 5 23 -3
12 -9 48 -12 80 -4 31 -12 57 -17 57 -5 0 -7 -12 -4 -27z"/>
<path d="M463 2423 c-29 -6 -29 -10 7 -178 37 -174 80 -304 136 -417 47 -94
53 -101 74 -88 12 8 13 13 3 27 -25 36 -96 180 -120 243 -13 35 -38 118 -54
185 -17 66 -32 127 -35 136 -4 13 5 18 41 23 25 4 45 11 45 15 0 9 -69 -1 -87
-12 -15 -9 -23 29 -10 42 6 6 35 11 64 11 29 0 53 5 53 10 0 10 -73 12 -117 3z"/>
<path d="M3320 2400 c0 -5 9 -10 20 -10 24 0 25 -11 5 -76 -17 -57 -18 -64 -7
-64 5 0 16 32 27 71 15 60 16 72 4 80 -19 12 -49 11 -49 -1z"/>
<path d="M4996 2385 c-3 -9 -18 -15 -40 -15 -28 0 -34 -4 -38 -25 -6 -31 -2
-35 39 -35 32 0 33 -2 33 -38 0 -61 -62 -383 -85 -444 -4 -10 -3 -18 3 -18 6
0 16 17 22 38 18 62 67 322 79 417 7 50 14 100 17 113 5 25 -20 32 -30 7z m-6
-51 c0 -11 -8 -14 -27 -12 -39 4 -42 28 -4 28 21 0 31 -5 31 -16z"/>
<path d="M3616 2374 c-3 -9 -6 -28 -6 -44 0 -47 -48 -197 -91 -281 -22 -44
-38 -86 -36 -92 5 -16 68 109 100 198 13 39 30 103 37 143 l13 72 139 0 c90 0
137 4 133 10 -4 6 -63 10 -145 10 -116 0 -139 -2 -144 -16z"/>
<path d="M5036 2338 c-3 -13 -8 -76 -11 -140 -6 -113 -6 -118 13 -118 23 0 26
13 43 164 8 80 8 101 -3 107 -22 15 -37 10 -42 -13z"/>
<path d="M4697 2333 c-4 -3 -7 -17 -7 -29 0 -23 31 -41 50 -29 16 10 12 23 -7
21 -10 0 -18 6 -18 14 0 10 8 14 23 13 13 -2 21 1 17 7 -7 11 -48 14 -58 3z"/>
<path d="M1090 2306 c-87 -18 -123 -50 -149 -128 -8 -25 -19 -38 -33 -40 -12
-2 -26 -11 -32 -20 -17 -28 4 -52 48 -56 23 -2 54 -16 81 -36 75 -58 161 -56
225 4 20 19 43 30 60 30 30 0 60 22 60 44 0 17 -21 36 -41 36 -11 0 -18 12
-23 39 -6 42 -63 102 -107 116 -13 4 -26 11 -29 15 -3 4 -30 2 -60 -4z m94
-101 c14 -13 26 -32 26 -42 -1 -14 -4 -12 -15 8 -18 33 -66 53 -102 44 -16 -3
-41 -18 -57 -33 -25 -24 -27 -24 -17 -5 29 57 117 72 165 28z m-29 -45 c4 -6
-17 -10 -57 -10 -44 0 -59 3 -48 10 20 13 97 13 105 0z m163 -62 c3 -17 -12
-18 -207 -18 -129 0 -212 4 -216 10 -16 27 13 30 213 28 188 -3 207 -5 210
-20z"/>
<path d="M3797 2303 c18 -2 50 -2 70 0 21 2 7 4 -32 4 -38 0 -55 -2 -38 -4z"/>
<path d="M3940 2300 c0 -5 5 -10 10 -10 6 0 10 5 10 10 0 6 -4 10 -10 10 -5 0
-10 -4 -10 -10z"/>
<path d="M560 2273 c0 -34 51 -227 80 -303 12 -30 34 -68 49 -85 33 -36 51
-63 111 -163 25 -41 52 -80 62 -86 12 -7 43 2 132 43 63 30 113 57 111 62 -3
4 -53 -15 -111 -42 -58 -28 -113 -49 -122 -47 -16 3 -132 207 -125 221 2 4 14
7 27 7 53 0 74 74 35 124 -25 32 -69 35 -109 6 l-29 -21 -24 78 c-14 43 -30
105 -37 138 -17 87 -20 95 -36 95 -9 0 -14 -10 -14 -27z m230 -283 c37 -37 21
-90 -28 -90 -17 0 -23 4 -18 15 3 8 0 14 -6 12 -6 -1 -16 11 -22 26 -9 24 -7
31 9 43 26 19 41 18 65 -6z"/>
<path d="M152 2173 c26 -121 58 -223 69 -223 12 0 12 -2 -10 62 -11 31 -27 91
-36 134 -22 105 -25 114 -35 114 -4 0 1 -39 12 -87z"/>
<path d="M4476 2251 c-4 -7 -5 -15 -2 -18 9 -9 19 4 14 18 -4 11 -6 11 -12 0z"/>
<path d="M2060 2238 c0 -20 94 -108 153 -142 60 -35 147 -69 147 -57 0 5 -21
17 -48 25 -65 22 -163 88 -212 143 -22 25 -40 39 -40 31z"/>
<path d="M3800 2239 c0 -5 87 -9 217 -9 119 0 214 2 212 4 -10 9 -429 14 -429
5z"/>
<path d="M4726 2198 c-5 -31 -6 -63 -3 -70 6 -18 20 73 15 103 -3 15 -7 3 -12
-33z"/>
<path d="M2360 2230 c0 -6 43 -10 109 -10 63 0 112 4 116 10 4 6 -35 10 -109
10 -71 0 -116 -4 -116 -10z"/>
<path d="M4685 2183 c-3 -32 -9 -69 -12 -82 -4 -16 -2 -22 5 -17 6 3 14 28 17
54 3 26 8 59 10 75 3 15 1 27 -4 27 -5 0 -12 -26 -16 -57z"/>
<path d="M2697 2213 c-15 -15 -43 -19 -155 -24 l-137 -6 132 -1 c133 -2 183 7
183 35 0 17 -2 17 -23 -4z"/>
<path d="M2786 2197 c-104 -87 -100 -82 -87 -105 6 -12 16 -22 22 -22 6 0 6 7
-1 19 -5 11 -10 22 -10 24 0 3 29 26 65 52 36 27 65 52 65 57 0 14 -14 8 -54
-25z"/>
<path d="M1636 2191 c-4 -5 -2 -12 3 -15 5 -4 12 -2 15 3 4 5 2 12 -3 15 -5 4
-12 2 -15 -3z"/>
<path d="M3800 2190 c-11 -7 -7 -10 18 -10 17 0 32 5 32 10 0 13 -30 13 -50 0z"/>
<path d="M1440 2170 c0 -5 7 -10 16 -10 8 0 12 5 9 10 -3 6 -10 10 -16 10 -5
0 -9 -4 -9 -10z"/>
<path d="M3891 2158 c-119 -311 -331 -570 -604 -737 -156 -95 -321 -165 -454
-192 -35 -7 -63 -17 -63 -21 0 -10 -2 -10 72 7 163 38 380 138 534 248 211
149 407 390 493 605 18 42 36 85 41 95 7 11 7 17 0 17 -6 0 -14 -10 -19 -22z"/>
<path d="M2904 2119 c-16 -17 -48 -42 -71 -57 -48 -30 -58 -50 -14 -27 35 18
140 114 125 115 -5 0 -23 -14 -40 -31z"/>
<path d="M3790 2140 c0 -5 11 -10 25 -10 14 0 25 5 25 10 0 6 -11 10 -25 10
-14 0 -25 -4 -25 -10z"/>
<path d="M4170 2135 c0 -8 5 -15 10 -15 6 0 10 7 10 15 0 8 -4 15 -10 15 -5 0
-10 -7 -10 -15z"/>
<path d="M3260 2068 c-50 -87 -136 -185 -212 -243 -65 -48 -84 -75 -53 -75 27
0 240 221 283 294 37 63 44 87 24 86 -4 0 -23 -28 -42 -62z"/>
<path d="M4363 2114 c-8 -21 13 -42 28 -27 13 13 5 43 -11 43 -6 0 -13 -7 -17
-16z"/>
<path d="M1644 2107 c-10 -27 56 -125 150 -221 46 -48 52 -57 39 -68 -13 -10
-26 0 -85 60 -38 40 -73 70 -79 67 -15 -10 122 -155 147 -155 20 0 54 28 54
44 0 5 -31 43 -69 85 -37 42 -87 105 -110 140 -29 45 -42 59 -47 48z"/>
<path d="M2410 2100 c37 -12 160 -12 160 0 0 6 -37 10 -92 9 -62 -1 -85 -4
-68 -9z"/>
<path d="M290 2087 c0 -63 114 -335 184 -441 30 -44 79 -123 109 -174 52 -86
54 -93 36 -102 -10 -6 -19 -16 -19 -23 0 -17 118 -171 192 -250 60 -63 66 -67
97 -61 30 6 37 2 97 -57 35 -35 64 -59 64 -53 0 18 -124 131 -151 138 -45 10
-262 277 -242 297 7 7 31 -14 72 -65 34 -42 69 -76 77 -76 20 0 18 17 -3 25
-10 3 -44 40 -76 81 -31 41 -63 74 -70 74 -13 0 -97 138 -156 256 -48 97 -102
230 -136 339 -26 82 -36 101 -54 103 -13 2 -21 -2 -21 -11z"/>
<path d="M1440 2075 c-16 -19 -5 -34 12 -17 21 21 37 13 64 -28 31 -46 56 -51
80 -15 21 32 8 47 -15 18 l-18 -22 -39 40 c-41 42 -64 48 -84 24z"/>
<path d="M1710 2084 c0 -4 16 -28 35 -54 83 -113 264 -254 408 -319 95 -43 92
-24 -3 20 -152 71 -308 200 -386 319 -23 34 -54 54 -54 34z"/>
<path d="M3788 2078 c9 -9 15 -9 24 0 9 9 7 12 -12 12 -19 0 -21 -3 -12 -12z"/>
<path d="M4703 2068 c-45 -50 -37 -109 18 -142 21 -13 28 -23 24 -34 -4 -10
-9 -29 -12 -44 -5 -26 -6 -27 -34 -13 -33 17 -39 18 -39 6 0 -5 9 -12 19 -16
19 -6 18 -9 -9 -91 -32 -93 -82 -189 -140 -269 -48 -67 -53 -75 -41 -75 29 0
161 232 200 352 15 46 26 65 36 62 9 -4 17 11 26 45 10 39 20 55 48 73 49 32
67 70 51 109 -17 40 -47 59 -90 59 -25 0 -43 -7 -57 -22z m51 -59 c-8 -14 -24
-10 -24 6 0 9 6 12 15 9 8 -4 12 -10 9 -15z"/>
<path d="M2430 2048 c0 -9 109 -15 123 -6 5 3 -20 8 -56 10 -37 1 -67 0 -67
-4z"/>
<path d="M5013 1998 c-11 -53 -4 -378 8 -378 12 0 12 263 0 276 -6 5 -4 36 4
77 7 37 9 67 5 67 -5 0 -12 -19 -17 -42z"/>
<path d="M2727 1989 c-37 -19 -115 -41 -189 -54 -48 -8 -68 -43 -68 -122 0
-91 -6 -103 -49 -102 -34 0 -185 36 -225 54 -14 6 -17 5 -12 -3 17 -28 258
-81 280 -63 8 7 15 45 19 97 6 105 15 117 103 133 73 13 194 58 194 72 0 12
-8 10 -53 -12z"/>
<path d="M114 1975 c-4 -9 0 -23 8 -31 20 -20 50 -7 46 20 -4 26 -45 35 -54
11z m36 -15 c0 -5 -2 -10 -4 -10 -3 0 -8 5 -11 10 -3 6 -1 10 4 10 6 0 11 -4
11 -10z"/>
<path d="M1615 1955 c-16 -13 -26 -27 -23 -31 7 -7 67 36 67 49 1 13 -13 7
-44 -18z"/>
<path d="M1130 1965 c0 -15 54 -108 101 -175 55 -78 276 -306 287 -295 3 3
-24 36 -61 73 l-67 68 31 32 31 32 -52 57 c-28 32 -72 91 -97 131 -26 39 -51
72 -56 72 -17 0 89 -157 151 -222 l34 -36 -21 -31 c-12 -17 -26 -31 -30 -31
-19 0 -158 179 -208 268 -32 56 -43 71 -43 57z"/>
<path d="M1320 1944 c0 -32 320 -372 380 -404 39 -21 19 6 -41 55 -81 66 -223
215 -279 293 -40 55 -60 74 -60 56z"/>
<path d="M4072 1936 c-39 -21 -62 -66 -62 -120 0 -45 4 -53 44 -91 l44 -42
-52 -89 c-47 -80 -55 -89 -79 -86 -15 2 -27 -1 -27 -8 0 -7 13 -10 32 -8 29 3
38 12 85 93 51 85 56 90 95 97 51 9 84 30 108 71 54 88 -13 197 -120 197 -25
-1 -55 -6 -68 -14z m72 -75 c-59 -27 -74 -71 -24 -71 19 0 30 5 30 14 0 8 12
28 26 43 l26 28 -22 -33 c-12 -18 -19 -39 -16 -47 4 -11 -3 -15 -29 -15 -19 0
-38 0 -42 0 -5 0 -9 10 -11 23 -4 29 48 77 81 77 16 0 10 -6 -19 -19z"/>
<path d="M3373 1905 c-29 -20 -46 -75 -34 -107 15 -41 61 -71 96 -64 41 8 85
58 85 97 0 67 -91 113 -147 74z m75 -89 c15 5 15 4 1 -5 -17 -11 -59 -4 -59
11 0 5 5 6 10 3 6 -3 13 2 17 12 7 16 8 16 11 -4 2 -15 8 -20 20 -17z"/>
<path d="M1523 1884 c-24 -14 -43 -29 -43 -33 0 -16 172 -191 248 -253 42 -34
112 -84 155 -111 42 -27 77 -52 77 -56 0 -3 -23 -41 -50 -85 -28 -43 -48 -81
-45 -85 8 -8 27 17 73 97 20 34 41 60 47 58 73 -35 189 -77 203 -74 10 2 -7
12 -38 23 -119 40 -174 71 -343 194 -105 77 -297 262 -297 286 0 8 14 21 30
30 17 9 30 20 30 25 0 13 1 14 -47 -16z"/>
<path d="M1630 1901 c0 -14 117 -137 124 -131 5 6 -100 132 -115 138 -5 2 -9
-1 -9 -7z"/>
<path d="M3637 1894 c-9 -9 4 -34 18 -34 14 0 27 25 18 34 -4 3 -12 6 -18 6
-6 0 -14 -3 -18 -6z"/>
<path d="M916 1858 c7 -13 65 -100 70 -107 6 -7 64 21 64 30 0 12 -17 11 -25
-1 -13 -21 -34 -8 -65 40 -18 28 -36 50 -42 50 -5 0 -6 -6 -2 -12z"/>
<path d="M1590 1862 c0 -11 69 -77 74 -71 5 4 -61 79 -69 79 -3 0 -5 -4 -5 -8z"/>
<path d="M3900 1855 c0 -8 5 -15 10 -15 6 0 10 7 10 15 0 8 -4 15 -10 15 -5 0
-10 -7 -10 -15z"/>
<path d="M79 1814 c-35 -37 -33 -98 4 -130 39 -34 81 -31 119 6 26 27 30 36
25 68 -12 76 -98 109 -148 56z m61 -54 c-19 -16 -37 -26 -39 -24 -3 2 11 17
30 33 19 16 36 27 39 24 3 -2 -11 -17 -30 -33z m36 -35 c-12 -19 -24 -25 -49
-24 -31 2 -31 2 -4 6 19 3 35 15 45 34 10 15 19 24 20 18 2 -5 -3 -21 -12 -34z"/>
<path d="M890 1803 c36 -65 48 -76 67 -68 17 7 17 8 -2 15 -11 4 -31 26 -45
49 -31 51 -49 54 -20 4z"/>
<path d="M3232 1823 c2 -10 10 -18 18 -18 8 0 16 8 18 18 2 12 -3 17 -18 17
-15 0 -20 -5 -18 -17z"/>
<path d="M280 1819 c0 -6 15 -44 34 -85 33 -69 55 -90 71 -64 3 6 -1 10 -10
10 -10 0 -28 27 -50 75 -33 71 -45 89 -45 64z"/>
<path d="M3857 1794 c-4 -4 -7 -14 -7 -23 0 -11 3 -12 11 -4 6 6 10 16 7 23
-2 6 -7 8 -11 4z"/>
<path d="M4824 1791 c7 -10 92 -41 114 -41 25 0 6 12 -50 31 -61 21 -71 23
-64 10z"/>
<path d="M3872 1713 c-140 -204 -371 -400 -598 -508 -52 -25 -94 -49 -94 -53
0 -11 53 -154 79 -215 23 -54 28 -55 106 -14 51 27 49 26 43 32 -2 3 -28 -6
-56 -20 -29 -14 -55 -25 -59 -25 -8 0 -94 217 -93 235 0 6 50 34 109 63 129
62 236 137 359 249 l90 83 40 -44 40 -44 23 24 c22 24 14 35 -9 12 -8 -8 -21
-3 -50 24 l-39 35 45 54 c58 70 117 158 109 165 -3 3 -23 -21 -45 -53z"/>
<path d="M1680 1754 c0 -9 32 -33 44 -34 5 0 1 9 -9 20 -18 20 -35 26 -35 14z"/>
<path d="M4727 1744 c3 -8 10 -14 17 -14 6 0 18 -5 26 -10 13 -9 13 -11 0 -20
-10 -6 -11 -13 -5 -17 6 -5 18 -20 28 -35 18 -29 45 -35 78 -18 22 12 26 59 7
78 -16 16 -61 15 -77 0 -10 -11 -11 -10 -6 3 4 11 -5 20 -34 31 -32 13 -39 13
-34 2z m141 -70 c3 -23 -18 -37 -43 -28 -16 6 -20 35 -8 48 14 14 48 1 51 -20z"/>
<path d="M1140 1731 c0 -9 33 -41 43 -41 4 0 2 9 -5 20 -13 21 -38 35 -38 21z"/>
<path d="M1926 1691 c20 -20 188 -110 193 -105 7 7 5 8 -103 69 -74 42 -113
57 -90 36z"/>
<path d="M3661 1654 c-32 -36 -36 -54 -13 -62 17 -5 82 67 75 84 -9 23 -29 16
-62 -22z"/>
<path d="M3263 1670 c-66 -27 -48 -130 22 -130 61 0 87 81 39 119 -30 23 -30
23 -61 11z"/>
<path d="M1120 1662 c0 -10 22 -32 32 -32 5 0 3 9 -4 20 -13 20 -28 27 -28 12z"/>
<path d="M1466 1656 c3 -9 11 -16 16 -16 13 0 5 23 -10 28 -7 2 -10 -2 -6 -12z"/>
<path d="M3038 1631 c-68 -61 -28 -166 63 -166 84 0 122 104 60 166 -39 38
-80 39 -123 0z"/>
<path d="M2367 1643 c-4 -3 -7 -80 -7 -171 l0 -165 -42 7 c-26 4 -48 14 -57
26 -17 25 -35 26 -22 2 7 -13 6 -23 -2 -31 -9 -10 -8 -12 8 -10 11 2 41 -1 68
-5 l47 -7 0 -63 c0 -34 -2 -65 -5 -68 -5 -5 -95 8 -124 18 -11 3 -11 7 -1 19
7 9 10 18 7 21 -10 10 -27 -7 -27 -27 0 -22 25 -34 93 -44 l47 -7 0 -48 0 -47
-78 12 c-292 47 -616 214 -846 436 l-103 99 -23 -25 c-17 -18 -19 -25 -9 -25
8 0 20 5 27 12 9 9 45 -21 154 -128 153 -149 240 -213 371 -273 111 -52 285
-107 382 -121 122 -18 125 -18 125 -40 0 -11 -3 -20 -7 -20 -26 0 -185 33
-262 54 l-91 25 -17 -25 c-8 -14 -14 -27 -11 -29 2 -2 32 -13 66 -24 l62 -19
0 25 c0 21 3 24 23 19 12 -3 70 -16 129 -28 l107 -21 4 -51 3 -51 2 51 2 51
89 -5 c120 -6 180 3 190 31 15 40 3 56 -48 59 l-46 3 -8 120 c-4 66 -9 126
-12 133 -3 8 -28 12 -75 12 l-70 0 0 165 0 165 26 0 c14 0 23 4 19 10 -7 11
-48 14 -58 3z m143 -370 c5 -4 19 -235 15 -241 -1 -1 -36 1 -78 4 l-77 7 0 45
0 45 55 -6 c69 -7 64 10 -5 19 l-50 7 0 62 c0 34 3 64 6 67 6 7 126 -2 134 -9z
m-471 -254 c29 -10 44 -39 21 -39 -24 0 -81 30 -75 40 8 13 15 13 54 -1z m491
-29 c0 -18 -7 -20 -80 -20 -73 0 -80 2 -80 20 0 18 7 20 80 20 73 0 80 -2 80
-20z m100 12 c0 -17 -25 -32 -52 -32 -21 0 -28 5 -28 20 0 17 7 20 40 20 22 0
40 -4 40 -8z"/>
<path d="M400 1625 c1 -16 69 -89 77 -81 4 4 -12 26 -35 49 -23 23 -42 37 -42
32z"/>
<path d="M4871 1613 c5 -30 -3 -43 -25 -43 -28 0 -56 -9 -56 -19 0 -3 20 -7
45 -9 46 -3 50 0 45 43 -1 18 1 17 26 -7 l28 -28 -21 -27 c-19 -26 -26 -28
-84 -28 l-64 1 -3 42 c-5 64 -22 50 -22 -18 0 -34 -7 -74 -16 -94 -22 -45 -15
-60 42 -85 58 -26 71 -26 111 -1 37 22 88 113 78 139 -5 12 -13 3 -32 -34 -14
-27 -32 -58 -40 -67 -24 -27 -65 -31 -109 -11 l-41 18 18 43 18 42 70 0 c65 0
71 2 90 29 29 40 26 65 -10 95 -30 26 -50 33 -48 19z"/>
<path d="M1209 1584 c-13 -14 -46 -45 -73 -67 l-49 -41 -44 49 c-61 68 -48 35
25 -61 113 -150 295 -306 530 -453 62 -39 115 -71 117 -71 5 0 65 116 65 126
0 4 -6 2 -13 -4 -15 -13 -96 22 -190 82 -32 21 -61 35 -64 32 -7 -7 110 -82
179 -113 l57 -27 -16 -27 -16 -28 -48 24 c-73 37 -248 158 -311 215 l-58 52
59 44 c32 24 64 44 70 44 16 0 81 -60 81 -76 0 -26 242 -186 257 -170 8 7 13
4 -82 59 -91 52 -165 112 -165 132 0 17 -87 85 -108 85 -21 0 -120 -78 -124
-98 -3 -12 -29 8 -98 75 l-94 91 55 50 c30 27 68 61 84 75 21 18 25 26 14 27
-8 0 -26 -12 -40 -26z"/>
<path d="M1530 1583 c1 -5 38 -37 84 -73 l83 -65 -18 -27 c-11 -15 -16 -29
-11 -32 5 -3 16 8 26 24 l17 29 59 -45 60 -46 -17 -28 c-17 -29 -14 -48 6 -36
11 7 81 128 81 139 0 4 -6 7 -14 7 -8 0 -19 -13 -25 -30 -5 -16 -13 -30 -16
-30 -14 0 -156 98 -226 157 -75 62 -89 71 -89 56z"/>
<path d="M264 1566 c-35 -15 -44 -32 -44 -80 0 -37 30 -81 62 -92 16 -5 18 -8
7 -15 -25 -16 -68 -10 -79 10 -5 11 -10 51 -10 90 0 53 -3 71 -13 71 -21 0
-11 -147 13 -180 9 -14 21 -41 25 -60 12 -57 27 -71 20 -20 l-5 45 44 20 43
21 27 -48 c15 -27 31 -46 36 -43 5 3 -4 27 -19 53 l-28 48 23 28 c23 26 33 66
17 66 -5 -1 -17 -15 -28 -33 -11 -18 -30 -33 -41 -35 -32 -5 -67 30 -67 66 0
42 19 62 60 62 38 0 53 -21 33 -45 -18 -21 -6 -29 19 -13 13 8 21 23 21 41 0
23 -7 31 -35 43 -41 17 -42 17 -81 0z"/>
<path d="M1947 1574 c-13 -13 -7 -24 14 -24 11 0 19 5 17 12 -5 14 -22 21 -31
12z"/>
<path d="M4372 1558 c-30 -30 3 -77 40 -57 22 12 24 55 2 63 -22 8 -28 8 -42
-6z m36 -25 c-4 -22 -22 -20 -26 1 -2 10 3 16 13 16 10 0 15 -7 13 -17z"/>
<path d="M1990 1550 c0 -22 143 -76 284 -106 38 -8 71 -12 74 -9 6 6 -4 9
-113 35 -49 12 -123 37 -164 56 -83 38 -81 38 -81 24z"/>
<path d="M2815 1524 c-27 -6 -89 -18 -137 -24 -49 -7 -88 -16 -88 -20 0 -4 17
-6 39 -3 36 5 38 4 45 -27 3 -18 6 -56 6 -85 0 -58 -8 -65 -77 -65 -18 0 -33
-5 -33 -10 0 -7 20 -9 58 -4 l58 6 23 -208 c12 -114 24 -211 27 -216 8 -12 84
-10 84 2 0 7 -13 8 -35 4 -30 -5 -35 -3 -39 17 -8 38 -56 524 -56 564 0 18 11
23 86 37 82 15 116 30 97 40 -4 3 -30 -1 -58 -8z"/>
<path d="M1225 1510 c-3 -5 1 -10 9 -10 9 0 16 5 16 10 0 6 -4 10 -9 10 -6 0
-13 -4 -16 -10z"/>
<path d="M3560 1513 c0 -5 12 -20 26 -34 24 -21 26 -22 16 -3 -13 25 -42 50
-42 37z"/>
<path d="M3468 1444 c-35 -29 -55 -51 -51 -60 7 -18 37 -18 53 1 7 8 18 15 25
15 7 0 18 7 25 16 15 17 24 74 12 74 -4 -1 -33 -21 -64 -46z"/>
<path d="M903 1420 c-40 -33 -73 -64 -73 -69 0 -4 9 -16 20 -26 17 -16 20 -16
20 -2 0 8 -6 18 -12 21 -8 3 2 18 27 40 22 20 43 36 46 36 3 0 15 -13 27 -29
l22 -30 -65 -57 c-89 -77 -83 -90 7 -15 54 44 76 57 85 49 14 -12 18 -38 5
-38 -4 0 -13 5 -20 12 -8 8 -12 8 -12 1 0 -6 7 -16 15 -23 13 -11 18 -10 30 6
13 18 15 18 44 -10 l30 -29 -29 -34 c-17 -18 -30 -36 -30 -38 0 -11 10 -3 39
27 l30 32 88 -85 c92 -89 236 -199 227 -174 -4 9 27 -4 75 -30 266 -147 446
-219 671 -269 314 -69 667 -59 955 26 39 12 78 21 88 20 9 0 17 3 17 9 0 14
-23 11 -115 -16 -175 -50 -252 -59 -520 -60 -222 0 -263 3 -363 23 -248 50
-439 122 -680 256 -107 59 -129 78 -257 206 -77 77 -145 140 -151 140 -6 0
-17 -7 -24 -16 -12 -13 -24 -5 -97 68 l-83 82 27 28 c46 48 11 31 -64 -32z
m507 -408 c0 -16 -141 95 -222 175 -54 53 -65 69 -56 80 9 12 36 -11 145 -119
73 -73 133 -134 133 -136z"/>
<path d="M1780 1476 c0 -3 14 -15 31 -27 l32 -22 -18 26 c-14 23 -45 38 -45
23z"/>
<path d="M4092 1460 c-7 -11 -8 -20 -2 -20 5 0 14 9 20 20 6 11 7 20 3 20 -5
0 -14 -9 -21 -20z"/>
<path d="M3783 1368 c-54 -51 -101 -98 -106 -104 -4 -7 3 -25 18 -42 25 -30
32 -52 17 -52 -5 0 -23 21 -41 47 l-33 47 93 88 c52 48 89 87 82 88 -17 0
-193 -161 -193 -177 0 -8 16 -35 35 -60 19 -25 35 -49 35 -54 0 -8 -43 -42
-91 -73 l-25 -16 -48 66 c-58 78 -76 78 -22 0 56 -82 60 -84 111 -57 24 13 67
44 97 71 l53 48 -22 24 c-23 24 -31 58 -14 58 5 0 45 34 89 75 53 50 85 73 95
69 19 -7 47 -48 47 -69 0 -8 -39 -53 -87 -100 -91 -89 -107 -124 -28 -59 77
63 145 145 145 174 0 32 -62 100 -90 100 -11 0 -63 -41 -117 -92z"/>
<path d="M4269 1373 c-213 -251 -343 -378 -547 -530 -62 -46 -118 -93 -125
-104 -6 -10 -17 -19 -23 -19 -7 0 -42 -14 -79 -30 -73 -33 -95 -37 -95 -17 0
7 -5 18 -11 24 -12 12 -29 8 -162 -31 -85 -25 -256 -57 -382 -71 -89 -10 -357
-8 -464 5 -302 34 -665 161 -874 304 -36 25 -64 39 -61 31 20 -52 358 -214
579 -278 399 -116 830 -116 1223 0 103 30 125 34 133 22 15 -24 4 -33 -77 -62
-169 -61 -448 -120 -674 -144 -61 -7 -75 -11 -78 -26 -3 -17 2 -18 70 -12 323
27 666 113 877 219 l91 46 0 -36 c0 -42 37 -84 74 -84 33 0 221 127 341 230
130 112 126 103 77 153 l-42 43 71 63 c38 35 73 61 76 57 3 -3 -18 -31 -46
-62 l-52 -57 26 -26 26 -26 69 71 c84 86 87 104 29 162 -47 48 -50 37 45 167
86 116 85 95 0 -30 -36 -53 -64 -99 -61 -101 6 -6 113 139 138 187 18 36 17
49 -6 49 -6 0 -45 -39 -86 -87z m-9 -252 c0 -13 -87 -113 -113 -130 -14 -9
-19 -8 -23 4 -4 10 11 34 41 66 46 49 46 51 29 70 -10 11 -21 18 -25 17 -5 -2
-40 -34 -79 -72 l-71 -69 43 -44 43 -44 -40 -35 c-163 -142 -360 -284 -395
-284 -28 0 -59 32 -66 67 -8 40 16 65 163 171 56 40 125 92 154 117 29 24 56
42 61 38 6 -3 16 -19 24 -37 7 -17 13 -24 14 -15 0 9 -9 28 -21 43 l-21 27 98
103 99 103 43 -43 c23 -23 42 -48 42 -53z"/>
<path d="M3913 905 c-32 -25 -106 -80 -165 -122 -60 -42 -108 -83 -108 -90 0
-18 39 -55 50 -48 16 10 11 22 -10 28 -11 3 -20 9 -20 14 0 5 45 42 101 82 55
40 123 92 152 114 30 24 60 40 72 38 16 -2 17 -1 6 13 -7 9 -15 16 -16 16 -2
0 -30 -20 -62 -45z"/>
<path d="M1326 1406 c-20 -24 -36 -48 -36 -52 0 -10 39 26 62 59 33 46 14 41
-26 -7z"/>
<path d="M1556 1441 c-4 -7 -5 -15 -2 -18 9 -9 19 4 14 18 -4 11 -6 11 -12 0z"/>
<path d="M4025 1419 c-10 -14 -1 -21 19 -13 9 3 13 10 10 15 -7 12 -21 11 -29
-2z"/>
<path d="M4637 1371 c-37 -63 -21 -84 100 -130 76 -29 91 -31 208 -31 77 0
125 4 125 10 0 6 -16 10 -35 10 -33 0 -35 2 -35 35 0 24 -5 35 -15 35 -11 0
-15 -11 -15 -36 l0 -36 -87 4 c-69 3 -104 11 -163 35 -81 33 -95 53 -66 95 18
25 20 38 8 38 -4 0 -15 -13 -25 -29z"/>
<path d="M3828 1318 c-74 -66 -76 -70 -65 -96 6 -15 13 -29 14 -31 2 -3 37 28
78 69 73 72 92 111 62 123 -7 2 -47 -27 -89 -65z"/>
<path d="M1720 1365 c0 -9 5 -15 11 -13 6 2 11 8 11 13 0 5 -5 11 -11 13 -6 2
-11 -4 -11 -13z"/>
<path d="M3086 1373 c-11 -11 -6 -23 9 -23 8 0 15 4 15 9 0 13 -16 22 -24 14z"/>
<path d="M2893 1363 c-7 -3 -13 -13 -13 -23 0 -19 17 -30 38 -23 6 3 12 13 12
23 0 19 -17 30 -37 23z"/>
<path d="M1750 1346 c0 -2 7 -7 16 -10 8 -3 12 -2 9 4 -6 10 -25 14 -25 6z"/>
<path d="M2035 1300 c-8 -13 4 -32 16 -25 12 8 12 35 0 35 -6 0 -13 -4 -16
-10z"/>
<path d="M4410 1282 c0 -4 20 -24 43 -44 56 -47 162 -167 154 -175 -4 -3 -41
26 -83 66 -92 86 -122 95 -40 12 l59 -59 -29 -26 c-18 -15 -37 -23 -49 -20
-32 8 -137 -106 -133 -143 7 -61 65 -30 133 72 18 28 47 64 65 80 l32 30 18
-22 c18 -22 47 -33 35 -13 -3 6 -1 10 4 10 31 0 0 46 -92 138 -97 96 -117 113
-117 94z"/>
<path d="M74 1265 c-4 -9 -2 -21 4 -27 15 -15 44 -1 40 19 -4 23 -36 29 -44 8z"/>
<path d="M1032 1249 c2 -7 10 -15 17 -17 8 -3 12 1 9 9 -2 7 -10 15 -17 17 -8
3 -12 -1 -9 -9z"/>
<path d="M1952 1248 c6 -18 28 -21 28 -4 0 9 -7 16 -16 16 -9 0 -14 -5 -12
-12z"/>
<path d="M3530 1224 c0 -3 17 -27 37 -52 21 -26 39 -49 40 -51 2 -2 6 -2 9 1
7 7 -66 108 -78 108 -4 0 -8 -3 -8 -6z"/>
<path d="M870 1210 c0 -5 7 -10 16 -10 8 0 12 5 9 10 -3 6 -10 10 -16 10 -5 0
-9 -4 -9 -10z"/>
<path d="M1019 1130 c52 -50 99 -90 105 -90 6 0 -31 41 -82 90 -50 50 -98 90
-105 90 -6 -1 30 -41 82 -90z"/>
<path d="M1450 1210 c0 -5 9 -14 20 -20 22 -12 27 -1 8 18 -14 14 -28 16 -28
2z"/>
<path d="M420 1135 c0 -74 0 -75 -26 -75 -42 0 -94 -31 -125 -73 -55 -76 -33
-183 48 -240 l43 -31 0 -158 c0 -99 4 -158 10 -158 6 0 10 60 10 160 l0 160
25 0 25 0 0 -161 c0 -104 3 -158 10 -154 6 4 10 68 10 160 l0 154 36 17 c53
25 87 76 92 138 2 30 -1 63 -7 74 -10 19 -7 26 29 58 22 20 38 39 35 42 -3 3
-22 -11 -43 -31 l-38 -38 -20 22 c-10 12 -36 30 -56 40 l-38 19 0 75 c0 43 -4
75 -10 75 -6 0 -10 -32 -10 -75z m38 -249 c4 -43 -7 -56 -51 -56 -46 0 -67 17
-67 54 0 18 3 36 7 40 4 4 30 6 58 4 l50 -3 3 -39z"/>
<path d="M352 883 c3 -26 7 -28 51 -31 46 -3 47 -3 47 27 0 30 -1 31 -51 31
-49 0 -50 -1 -47 -27z"/>
<path d="M985 1123 c81 -76 122 -109 129 -102 6 5 -191 179 -201 179 -4 -1 28
-35 72 -77z"/>
<path d="M638 1183 c-10 -2 -18 -9 -18 -14 0 -5 11 -7 24 -3 19 4 28 0 41 -19
28 -43 125 -143 125 -129 0 14 -139 173 -149 171 -3 -1 -14 -3 -23 -6z"/>
<path d="M4385 1180 c4 -6 11 -8 16 -5 14 9 11 15 -7 15 -8 0 -12 -5 -9 -10z"/>
<path d="M845 1160 c10 -11 22 -17 28 -13 6 4 3 12 -8 20 -28 20 -41 16 -20
-7z"/>
<path d="M3417 1152 c-3 -4 7 -28 23 -53 17 -24 32 -48 34 -54 2 -5 7 -7 11
-3 4 4 -9 32 -28 63 -19 31 -37 52 -40 47z"/>
<path d="M2888 1143 c-9 -2 -18 -14 -20 -26 -3 -24 20 -229 28 -236 12 -12 11
14 -3 114 -15 108 -15 110 6 124 12 7 21 17 21 22 0 9 -4 10 -32 2z"/>
<path d="M237 1133 c-13 -13 -7 -38 18 -68 29 -36 34 -15 5 22 -26 34 -14 50
16 22 13 -12 24 -18 24 -12 0 12 -33 43 -47 43 -5 0 -13 -3 -16 -7z"/>
<path d="M2990 1103 c-30 -8 -59 -18 -64 -23 -8 -8 18 -187 29 -198 14 -14 14
13 0 93 -17 101 -19 98 63 116 29 7 55 16 58 21 7 11 -22 9 -86 -9z"/>
<path d="M3350 1115 c0 -16 63 -114 71 -110 4 3 -5 28 -22 55 -28 46 -49 69
-49 55z"/>
<path d="M4730 1115 c0 -3 16 -11 35 -19 48 -21 136 -111 164 -168 12 -27 28
-75 34 -108 6 -33 15 -60 19 -60 11 0 10 19 -7 83 -28 109 -87 193 -174 249
-41 26 -71 35 -71 23z"/>
<path d="M1823 1094 c-5 -15 8 -63 52 -184 9 -25 20 -36 36 -38 l24 -3 -23 16
c-16 12 -20 20 -13 29 5 6 15 34 21 61 l11 48 -47 44 c-26 24 -49 43 -51 43
-2 0 -6 -7 -10 -16z"/>
<path d="M3737 1034 c-80 -58 -225 -144 -327 -192 -52 -25 -89 -47 -83 -49 29
-10 443 226 468 267 12 19 -11 9 -58 -26z"/>
<path d="M210 1050 c0 -5 5 -10 10 -10 6 0 10 5 10 10 0 6 -4 10 -10 10 -5 0
-10 -4 -10 -10z"/>
<path d="M3085 1038 c-50 -18 -58 -28 -52 -71 3 -22 11 -45 17 -51 8 -8 10 2
4 41 l-6 51 43 13 c24 7 48 16 54 21 13 11 -23 9 -60 -4z"/>
<path d="M690 1022 c0 -10 41 -35 47 -28 9 8 -17 36 -33 36 -8 0 -14 -3 -14
-8z"/>
<path d="M3478 999 c-59 -30 -76 -46 -36 -33 28 8 117 64 103 63 -5 0 -36 -13
-67 -30z"/>
<path d="M4598 1004 c-113 -58 -143 -208 -61 -304 19 -23 24 -37 18 -58 l-6
-27 22 22 22 22 -28 33 c-15 18 -34 47 -42 65 -33 81 -1 189 68 224 l40 20 -3
-28 c-2 -20 2 -28 12 -28 11 0 14 9 12 33 -2 32 -2 32 41 32 101 0 197 -98
197 -202 0 -26 5 -48 10 -48 18 0 10 85 -14 135 -55 120 -179 166 -288 109z"/>
<path d="M110 1005 c0 -8 7 -15 15 -15 8 0 15 7 15 15 0 8 -7 15 -15 15 -8 0
-15 -7 -15 -15z"/>
<path d="M806 958 c-9 -12 -16 -29 -16 -38 0 -9 7 -26 16 -38 18 -27 69 -30
96 -5 17 15 19 15 38 -2 11 -10 20 -13 20 -7 0 6 -11 19 -25 28 -14 9 -25 25
-25 35 0 22 -36 49 -67 49 -12 0 -29 -10 -37 -22z"/>
<path d="M3106 951 c-4 -5 -2 -12 3 -15 5 -4 12 -2 15 3 4 5 2 12 -3 15 -5 4
-12 2 -15 -3z"/>
<path d="M2000 941 c0 -12 26 -21 58 -20 26 0 25 1 -8 14 -43 17 -50 17 -50 6z"/>
<path d="M1387 926 c-6 -15 -14 -17 -42 -13 -25 4 -33 2 -29 -7 3 -8 16 -11
34 -8 26 4 30 1 30 -18 0 -19 -4 -22 -30 -18 -19 3 -30 0 -30 -7 0 -8 10 -10
26 -7 16 3 30 -1 35 -9 8 -12 10 -12 18 0 5 7 6 21 4 31 -3 12 2 20 14 23 15
4 15 5 1 6 -9 0 -18 11 -20 24 -3 20 -4 20 -11 3z"/>
<path d="M4764 925 c36 -19 42 -19 26 0 -7 8 -22 15 -34 15 -18 0 -17 -2 8
-15z"/>
<path d="M4658 884 c-16 -9 -30 -26 -33 -42 -4 -15 -8 -35 -10 -46 -4 -21 38
-62 73 -71 27 -7 75 17 96 47 19 26 21 74 4 84 -8 5 -9 0 -5 -15 14 -54 -57
-116 -106 -94 -32 15 -49 62 -34 93 16 30 48 50 54 33 5 -15 23 -17 23 -3 0
20 -35 28 -62 14z"/>
<path d="M680 880 c0 -5 5 -10 10 -10 6 0 10 5 10 10 0 6 -4 10 -10 10 -5 0
-10 -4 -10 -10z"/>
<path d="M1012 870 c-97 -59 -93 -179 8 -247 40 -27 83 -29 130 -5 l35 17 56
-65 c99 -114 167 -185 172 -180 3 3 -42 61 -100 130 -80 96 -102 130 -98 145
40 127 -15 225 -125 225 -27 0 -58 -8 -78 -20z m46 -117 c-4 -22 -22 -20 -26
1 -2 10 3 16 13 16 10 0 15 -7 13 -17z m72 2 c0 -8 -7 -15 -15 -15 -8 0 -15 7
-15 15 0 8 7 15 15 15 8 0 15 -7 15 -15z"/>
<path d="M1810 864 c0 -8 5 -12 10 -9 6 3 10 10 10 16 0 5 -4 9 -10 9 -5 0
-10 -7 -10 -16z"/>
<path d="M3127 874 c-8 -8 1 -24 14 -24 5 0 9 7 9 15 0 15 -12 20 -23 9z"/>
<path d="M2160 850 c0 -5 5 -10 10 -10 6 0 10 5 10 10 0 6 -4 10 -10 10 -5 0
-10 -4 -10 -10z"/>
<path d="M4244 749 c-88 -89 -104 -109 -87 -109 8 0 162 163 177 188 16 26 -5
9 -90 -79z"/>
<path d="M4117 824 c-8 -8 1 -24 14 -24 5 0 9 7 9 15 0 15 -12 20 -23 9z"/>
<path d="M4380 800 c0 -5 5 -10 10 -10 6 0 10 5 10 10 0 6 -4 10 -10 10 -5 0
-10 -4 -10 -10z"/>
<path d="M3495 790 c3 -5 -13 -21 -35 -36 -22 -15 -38 -29 -36 -31 4 -5 63 23
83 39 13 10 7 38 -9 38 -5 0 -7 -4 -3 -10z"/>
<path d="M3397 764 c-26 -14 -45 -29 -42 -33 3 -5 31 5 62 22 71 37 71 37 47
37 -10 -1 -41 -12 -67 -26z"/>
<path d="M1420 760 c0 -5 7 -10 16 -10 8 0 12 5 9 10 -3 6 -10 10 -16 10 -5 0
-9 -4 -9 -10z"/>
<path d="M4268 686 l-73 -76 -42 12 c-80 23 -151 -35 -140 -113 6 -46 45 -94
84 -104 36 -9 90 12 113 45 22 31 26 89 9 122 -6 11 -7 23 -3 27 23 16 136
152 131 157 -3 4 -39 -28 -79 -70z m-169 -146 c-34 -42 -39 -46 -39 -31 0 10
55 71 64 71 4 0 -8 -18 -25 -40z"/>
<path d="M97 744 c-14 -15 -6 -34 14 -34 14 0 19 5 17 17 -3 18 -20 27 -31 17z"/>
<path d="M790 740 c0 -5 5 -10 10 -10 6 0 10 5 10 10 0 6 -4 10 -10 10 -5 0
-10 -4 -10 -10z"/>
<path d="M4025 740 c-3 -5 1 -10 9 -10 9 0 16 5 16 10 0 6 -4 10 -9 10 -6 0
-13 -4 -16 -10z"/>
<path d="M2660 725 c0 -8 7 -15 15 -15 8 0 15 7 15 15 0 8 -7 15 -15 15 -8 0
-15 -7 -15 -15z"/>
<path d="M565 660 l-49 -50 52 0 c44 0 54 -4 68 -25 9 -14 20 -22 25 -19 5 3
0 15 -11 26 -14 16 -17 25 -10 32 8 8 17 4 30 -14 15 -19 20 -21 20 -9 0 30
-26 42 -76 34 -50 -7 -51 -2 -11 42 41 46 9 31 -38 -17z"/>
<path d="M4642 698 c8 -24 98 -29 98 -6 0 6 -11 7 -24 4 -14 -3 -37 -1 -51 4
-20 8 -26 7 -23 -2z"/>
<path d="M3959 681 c-28 -23 -20 -38 10 -19 22 13 36 38 22 38 -5 0 -19 -9
-32 -19z"/>
<path d="M1270 672 c0 -15 38 -44 51 -40 7 2 -1 14 -19 27 -18 12 -32 18 -32
13z"/>
<path d="M4890 635 c0 -14 -7 -28 -15 -31 -8 -4 -13 -10 -10 -15 3 -4 -7 -16
-22 -26 -15 -9 -29 -18 -31 -19 -2 -1 3 -17 11 -36 27 -65 103 -74 158 -18 48
48 38 125 -21 155 -45 23 -70 20 -70 -10z"/>
<path d="M1496 634 c-9 -8 -16 -17 -16 -19 0 -12 299 -155 324 -155 3 0 6 4 6
8 0 5 -18 14 -41 21 -23 7 -90 37 -150 68 -92 46 -109 59 -104 74 8 23 1 24
-19 3z"/>
<path d="M1747 643 c-18 -29 -34 -83 -26 -83 6 0 15 14 21 31 12 35 3 36 133
-15 50 -19 101 -35 115 -35 15 0 19 3 10 6 -151 55 -208 78 -221 89 -18 16
-26 17 -32 7z"/>
<path d="M4815 633 c-54 -28 -65 -43 -65 -90 0 -29 4 -42 11 -38 5 4 8 19 5
33 -3 15 -3 32 2 37 16 24 74 56 88 51 10 -4 14 -1 12 6 -6 18 -20 19 -53 1z"/>
<path d="M4430 620 c-18 -11 -4 -42 17 -38 10 2 19 10 21 19 4 19 -19 31 -38
19z"/>
<path d="M3825 563 c-38 -24 -85 -53 -104 -64 -18 -11 -31 -22 -28 -26 7 -6
194 104 203 119 13 20 -4 13 -71 -29z"/>
<path d="M4676 594 c-20 -19 -20 -29 -1 -48 8 -8 15 -31 15 -50 l0 -36 -147 0
c-131 0 -193 -8 -167 -22 17 -8 394 4 388 13 -3 5 -16 9 -30 9 -22 0 -24 4
-24 44 0 25 5 48 10 51 16 10 11 34 -9 45 -15 7 -23 6 -35 -6z"/>
<path d="M193 590 c-51 -21 -57 -87 -13 -132 26 -25 36 -29 63 -24 66 13 91
93 42 141 -25 26 -54 30 -92 15z m87 -30 c24 -24 26 -58 6 -86 -15 -19 -15
-19 -30 1 -18 23 -21 39 -6 30 6 -3 13 2 17 11 4 10 2 19 -5 22 -7 2 -18 10
-26 17 -11 12 -17 11 -35 -6 -26 -25 -24 -53 4 -57 25 -4 53 -42 31 -42 -39 0
-86 55 -70 83 29 50 79 62 114 27z m-40 -30 c0 -12 -28 -25 -36 -17 -9 9 6 27
22 27 8 0 14 -5 14 -10z"/>
<path d="M1355 590 c-8 -14 3 -30 21 -30 8 0 14 9 14 20 0 21 -24 28 -35 10z"/>
<path d="M581 560 c12 -16 26 -27 31 -24 10 6 -29 54 -44 54 -5 0 1 -13 13
-30z"/>
<path d="M844 577 c-3 -8 -4 -49 -2 -93 l3 -79 57 -3 c61 -3 98 9 98 33 0 11
-13 15 -54 15 -73 0 -82 18 -11 22 72 4 71 21 -2 29 l-58 6 63 1 c80 2 82 22
2 22 -33 0 -60 4 -60 10 0 6 26 10 58 10 63 0 74 4 65 26 -7 19 -151 20 -159
1z"/>
<path d="M1482 560 c5 -15 238 -143 238 -130 0 5 -44 32 -97 61 -54 29 -109
59 -122 68 -19 12 -23 13 -19 1z"/>
<path d="M1819 542 c15 -27 24 -33 40 -22 8 5 36 0 69 -11 58 -20 93 -25 77
-11 -8 7 -52 22 -179 59 -16 5 -17 3 -7 -15z"/>
<path d="M2180 530 c0 -5 8 -10 18 -10 9 0 51 -5 92 -11 159 -21 565 -6 610
23 10 6 1 7 -30 3 -235 -32 -470 -32 -657 0 -20 4 -33 2 -33 -5z"/>
<path d="M3483 515 c-24 -13 -49 -25 -55 -28 -7 -2 -10 -7 -7 -11 8 -8 119 44
119 56 0 12 -11 9 -57 -17z"/>
<path d="M3980 530 c0 -5 5 -10 10 -10 6 0 10 5 10 10 0 6 -4 10 -10 10 -5 0
-10 -4 -10 -10z"/>
<path d="M1158 475 c2 -30 2 -55 -2 -55 -3 0 -12 14 -21 30 -9 17 -20 30 -26
30 -13 0 34 -83 49 -88 5 -1 11 3 14 10 6 20 -3 128 -11 128 -4 0 -6 -25 -3
-55z"/>
<path d="M4302 493 c2 -10 10 -18 18 -18 8 0 16 8 18 18 2 12 -3 17 -18 17
-15 0 -20 -5 -18 -17z"/>
<path d="M2106 491 c13 -14 164 -41 224 -40 32 1 14 6 -65 19 -60 10 -123 21
-140 25 -22 6 -27 5 -19 -4z"/>
<path d="M1886 481 c14 -13 114 -40 119 -31 2 4 -22 14 -55 23 -68 19 -78 21
-64 8z"/>
<path d="M3345 460 c-3 -5 1 -10 9 -10 9 0 16 5 16 10 0 6 -4 10 -9 10 -6 0
-13 -4 -16 -10z"/>
</g>
</svg>